<svg xmlns="http://www.w3.org/2000/svg" xmlns:xlink="http://www.w3.org/1999/xlink" width="1080" zoomAndPan="magnify" viewBox="0 0 810 809.999993" height="1080" preserveAspectRatio="xMidYMid meet" version="1.0"><defs><g/></defs><g fill="#ff3873" fill-opacity="0.302"><g transform="translate(175.752515, 345.243458)"><g><path d="M 64.28125 -58.9375 C 63.75 -58.953125 63.21875 -58.984375 62.71875 -58.859375 C 61.40625 -58.5 60.5 -57.375 60.1875 -55.890625 C 57.21875 -34.40625 49.828125 -16.25 32.734375 -4.8125 L 33.265625 -12.65625 L 36.265625 -53.484375 C 37.671875 -69.125 39.046875 -81.59375 39.84375 -89.015625 C 40.015625 -91.671875 37.09375 -93.359375 35.140625 -92.828125 C 33.828125 -92.46875 32.78125 -91.140625 32.65625 -89.6875 C 29.5 -57.796875 29.6875 -61 29.265625 -54.046875 C 27.8125 -33.484375 22.015625 -13.296875 13.34375 -10.96875 C 4.03125 -8.453125 0.984375 -13.953125 -0.296875 -18.6875 C -1.890625 -24.5625 -0.484375 -30.40625 1.375 -52.140625 L 3.640625 -79.421875 C 3.921875 -81.765625 1.9375 -83.875 -0.84375 -83.125 C -2.15625 -82.765625 -3.25 -81.59375 -3.375 -80.15625 L -5.84375 -52.8125 C -7.703125 -34.421875 -9.046875 -24.40625 -7.328125 -16.796875 C -5.125 -8.625 1.3125 -0.359375 15.203125 -4.109375 C 19.796875 -5.34375 23.34375 -8.40625 26.140625 -13.015625 L 25.21875 -0.140625 C 21.125 2.1875 16.921875 4.203125 13.015625 5.953125 C -5.625 14.859375 -11.625 24.546875 -8.84375 34.859375 C -6.25 44.5 1.84375 49.15625 11.640625 46.328125 C 23.359375 43.015625 30.375 28.640625 32.171875 4.125 C 54.15625 -9.34375 63.625 -28.21875 67.328125 -54.84375 C 67.34375 -55.390625 67.390625 -55.90625 67.25 -56.40625 C 66.90625 -57.703125 65.78125 -58.640625 64.28125 -58.9375 Z M 9.78125 39.46875 C 4.265625 41.140625 -0.46875 38.546875 -2.015625 32.828125 C -3.390625 25.125 1.828125 19.15625 16.171875 12.484375 C 19 11.1875 21.75 9.75 24.6875 8.25 C 23.75 26.234375 18.5625 36.921875 9.78125 39.46875 Z M 9.78125 39.46875 "/></g></g></g><g fill="#ff3873" fill-opacity="0.302"><g transform="translate(243.131083, 327.058249)"><g/></g></g><g fill="#ff3873" fill-opacity="0.302"><g transform="translate(292.193136, 313.816595)"><g><path d="M 112.765625 -101.671875 C 104.46875 -132.421875 85.703125 -151.234375 54.875 -144.46875 C 21.6875 -135.515625 8.109375 -104.5 17.5 -68.421875 C 18.03125 -66.46875 20.0625 -65.421875 21.859375 -65.90625 C 23.828125 -66.4375 24.890625 -68.328125 24.359375 -70.28125 C 16.234375 -101.765625 26.96875 -129.578125 56.734375 -137.609375 C 83.09375 -143.3125 98.59375 -126.796875 105.875 -99.8125 C 113.859375 -70.203125 109.90625 -25.109375 81.4375 -17.421875 C 71.140625 -14.640625 59.890625 -16.703125 57.25 -26.5 C 55.578125 -32.71875 58.828125 -38.859375 64.21875 -40.3125 C 68.46875 -41.453125 72.96875 -38.46875 76 -34.375 C 76.890625 -33.03125 78.40625 -32.578125 79.875 -32.96875 C 82.171875 -33.59375 82.984375 -36.421875 81.75 -38.375 C 77.0625 -45.375 70.046875 -49.265625 62.359375 -47.1875 C 53.359375 -44.765625 47.5 -35.28125 50.375 -24.640625 C 53.953125 -11.40625 67.765625 -6.359375 83.296875 -10.546875 C 115.859375 -19.328125 122.078125 -67.15625 112.765625 -101.671875 Z M 56.25 -117.296875 C 56.984375 -121.703125 60.265625 -127.15625 63.84375 -128.84375 C 65.078125 -129.5 66.234375 -131.046875 65.5625 -133.515625 C 64.671875 -135.546875 62.828125 -136.453125 60.6875 -135.34375 C 54.75 -131.984375 50.75 -126 49.15625 -118.90625 C 47 -108.671875 46.515625 -95.546875 46.140625 -81.9375 C 45.203125 -54.84375 44.796875 -19.296875 21.90625 -13.125 C 12.75 -10.640625 3.59375 -13.953125 0.859375 -24.109375 C -1.703125 -33.578125 3.421875 -45.84375 12.421875 -48.28125 C 13.390625 -48.546875 14.265625 -48.59375 15.125 -48.65625 C 17.53125 -48.765625 19.234375 -50.984375 18.609375 -53.28125 C 18.21875 -54.75 16.875 -55.796875 15.28125 -55.890625 C 13.5 -55.921875 11.984375 -55.703125 10.34375 -55.265625 C -2.078125 -51.90625 -9.75 -36.140625 -5.921875 -21.921875 C -2.296875 -8.515625 10.515625 -2.65625 23.921875 -6.265625 C 51.078125 -13.59375 52.171875 -49.890625 53.203125 -81.734375 C 53.71875 -94.859375 54.125 -107.59375 56.25 -117.296875 Z M 56.25 -117.296875 "/></g></g></g><g fill="#ff3873" fill-opacity="0.302"><g transform="translate(428.42211, 277.048935)"><g><path d="M 48.703125 -54.90625 C 46.734375 -55.078125 44.96875 -53.734375 44.609375 -51.859375 C 41.140625 -28.296875 33.234375 -15.984375 19.734375 -12.6875 C 9.84375 -10.375 3.0625 -14.6875 0.859375 -24.109375 C 0.109375 -27.5625 -0.234375 -30.8125 -0.25 -35.375 C 16.71875 -44.6875 38.265625 -61.734375 33.59375 -79.078125 C 31.46875 -86.921875 24.59375 -89.625 16.421875 -87.421875 C -2.875 -82.21875 -10.71875 -43.609375 -6.046875 -22.40625 C -2.75 -8.890625 7.84375 -2.109375 21.421875 -5.78125 C 37.9375 -10.234375 47.453125 -24.390625 51.734375 -50.8125 C 51.765625 -51.34375 51.859375 -51.703125 51.71875 -52.203125 C 51.375 -53.5 50.1875 -54.59375 48.703125 -54.90625 Z M 0.25 -43.921875 C 2.078125 -57.9375 6.96875 -77.515625 18.265625 -80.5625 C 21.84375 -81.53125 25.515625 -81.640625 26.71875 -77.234375 C 29.984375 -65.125 12.671875 -51.84375 0.25 -43.921875 Z M 0.25 -43.921875 "/></g></g></g><g fill="#ff3873" fill-opacity="0.302"><g transform="translate(480.264362, 263.056916)"><g><path d="M 48.703125 -54.90625 C 46.734375 -55.078125 44.96875 -53.734375 44.609375 -51.859375 C 41.515625 -30.84375 34.453125 -16.65625 18.578125 -12.375 C 10.734375 -10.265625 3.828125 -15.0625 1.359375 -24.234375 C -3.9375 -43.859375 5.828125 -77.203125 18.59375 -80.65625 C 23.5 -81.984375 26.375 -79.765625 27.921875 -74.03125 C 29.6875 -67.484375 26.515625 -63.65625 27.140625 -61.375 C 27.71875 -59.25 29.328125 -58.4375 31.453125 -59.015625 C 35.21875 -60.03125 36.78125 -68.53125 34.78125 -75.890625 C 32.359375 -84.875 26.0625 -90.03125 16.75 -87.515625 C 0.0625 -83.015625 -12.4375 -48.0625 -5.546875 -22.546875 C -1.921875 -9.125 8.34375 -2.25 20.28125 -5.46875 C 39.25 -10.59375 47.765625 -25.859375 51.734375 -50.8125 C 51.765625 -51.34375 51.859375 -51.703125 51.71875 -52.203125 C 51.375 -53.5 50.1875 -54.59375 48.703125 -54.90625 Z M 48.703125 -54.90625 "/></g></g></g><g fill="#ff3873" fill-opacity="0.302"><g transform="translate(532.106613, 249.064898)"><g><path d="M 3.53125 -92.890625 C 6.640625 -93.734375 8.421875 -96.859375 7.59375 -99.96875 C 6.75 -103.078125 3.640625 -104.84375 0.53125 -104 C -2.578125 -103.171875 -4.53125 -100.03125 -3.6875 -96.921875 C -2.859375 -93.8125 0.421875 -92.0625 3.53125 -92.890625 Z M 26.953125 -49.03125 C 26.40625 -49.046875 26.046875 -49.140625 25.546875 -49 C 24.234375 -48.65625 23.15625 -47.484375 22.859375 -46 C 20.421875 -30.953125 17.4375 -12.0625 7.296875 -9.328125 C 3.859375 -8.40625 1.828125 -10.125 0.546875 -14.890625 C -1.359375 -21.90625 -0.4375 -30.234375 3.375 -79.171875 C 3.609375 -82.21875 1.046875 -83.28125 -1.078125 -82.703125 C -2.390625 -82.34375 -3.484375 -81.1875 -3.578125 -79.5625 C -5.734375 -58.984375 -9.28125 -25.90625 -6.3125 -13.046875 C -4.609375 -5.421875 1.3125 -0.359375 9.15625 -2.46875 C 22.90625 -6.1875 26.90625 -25.15625 29.984375 -44.9375 C 30.015625 -45.46875 30.046875 -46.015625 29.90625 -46.5 C 29.5625 -47.8125 28.390625 -48.90625 26.953125 -49.03125 Z M 26.953125 -49.03125 "/></g></g></g><g fill="#ff3873" fill-opacity="0.302"><g transform="translate(562.198015, 240.943348)"><g><path d="M 67.1875 -59.890625 C 66.640625 -59.90625 66.109375 -59.953125 65.78125 -59.859375 C 64.46875 -59.515625 63.390625 -58.34375 63.046875 -57.03125 C 59.90625 -38.09375 55.703125 -22.390625 43.9375 -19.21875 C 40.171875 -18.203125 37.90625 -20.78125 36.859375 -24.703125 C 35.703125 -28.953125 36.046875 -39.375 36.484375 -47.5625 C 36.6875 -52.546875 41.15625 -113.40625 41.515625 -118.59375 C 41.6875 -120.578125 39.78125 -123.03125 37.015625 -122.28125 C 35.703125 -121.9375 34.609375 -120.765625 34.484375 -119.328125 L 32.5625 -91.953125 L 31.75 -82.609375 C 27.765625 -86.96875 22.140625 -88.96875 14.78125 -86.984375 C -5 -81.640625 -11.046875 -38.9375 -5.265625 -17.53125 C -2.609375 -7.703125 3.75 -1.015625 12.921875 -3.484375 C 21.25 -5.734375 26.296875 -13.765625 29.796875 -23.484375 C 32.28125 -14.328125 38.109375 -10.28125 45.796875 -12.359375 C 60.84375 -16.421875 66.25 -32.796875 70.21875 -55.796875 C 70.25 -56.328125 70.28125 -56.875 70.140625 -57.359375 C 69.796875 -58.671875 68.671875 -59.59375 67.1875 -59.890625 Z M 10.90625 -10.296875 C 5.984375 -8.96875 3.234375 -13.328125 1.296875 -20.53125 C -2.71875 -36.8125 1.71875 -75.5625 16.625 -80.125 C 23 -81.84375 27.96875 -78.4375 30.3125 -71 C 30.390625 -70.6875 30.484375 -70.34375 30.46875 -69.828125 C 30.03125 -66.890625 29.765625 -63.296875 29.203125 -59.484375 C 27.1875 -41.03125 24.140625 -13.875 10.90625 -10.296875 Z M 10.90625 -10.296875 "/></g></g></g><g fill="#ff3873" fill-opacity="0.302"><g transform="translate(632.520303, 221.963641)"><g><path d="M 48.703125 -54.90625 C 46.734375 -55.078125 44.96875 -53.734375 44.609375 -51.859375 C 41.140625 -28.296875 33.234375 -15.984375 19.734375 -12.6875 C 9.84375 -10.375 3.0625 -14.6875 0.859375 -24.109375 C 0.109375 -27.5625 -0.234375 -30.8125 -0.25 -35.375 C 16.71875 -44.6875 38.265625 -61.734375 33.59375 -79.078125 C 31.46875 -86.921875 24.59375 -89.625 16.421875 -87.421875 C -2.875 -82.21875 -10.71875 -43.609375 -6.046875 -22.40625 C -2.75 -8.890625 7.84375 -2.109375 21.421875 -5.78125 C 37.9375 -10.234375 47.453125 -24.390625 51.734375 -50.8125 C 51.765625 -51.34375 51.859375 -51.703125 51.71875 -52.203125 C 51.375 -53.5 50.1875 -54.59375 48.703125 -54.90625 Z M 0.25 -43.921875 C 2.078125 -57.9375 6.96875 -77.515625 18.265625 -80.5625 C 21.84375 -81.53125 25.515625 -81.640625 26.71875 -77.234375 C 29.984375 -65.125 12.671875 -51.84375 0.25 -43.921875 Z M 0.25 -43.921875 "/></g></g></g><g fill="#ff3873" fill-opacity="0.502"><g transform="translate(171.815244, 344.414034)"><g><path d="M 64.28125 -58.9375 C 63.75 -58.953125 63.21875 -58.984375 62.71875 -58.859375 C 61.40625 -58.5 60.5 -57.375 60.1875 -55.890625 C 57.21875 -34.40625 49.828125 -16.25 32.734375 -4.8125 L 33.265625 -12.65625 L 36.265625 -53.484375 C 37.671875 -69.125 39.046875 -81.59375 39.84375 -89.015625 C 40.015625 -91.671875 37.09375 -93.359375 35.140625 -92.828125 C 33.828125 -92.46875 32.78125 -91.140625 32.65625 -89.6875 C 29.5 -57.796875 29.6875 -61 29.265625 -54.046875 C 27.8125 -33.484375 22.015625 -13.296875 13.34375 -10.96875 C 4.03125 -8.453125 0.984375 -13.953125 -0.296875 -18.6875 C -1.890625 -24.5625 -0.484375 -30.40625 1.375 -52.140625 L 3.640625 -79.421875 C 3.921875 -81.765625 1.9375 -83.875 -0.84375 -83.125 C -2.15625 -82.765625 -3.25 -81.59375 -3.375 -80.15625 L -5.84375 -52.8125 C -7.703125 -34.421875 -9.046875 -24.40625 -7.328125 -16.796875 C -5.125 -8.625 1.3125 -0.359375 15.203125 -4.109375 C 19.796875 -5.34375 23.34375 -8.40625 26.140625 -13.015625 L 25.21875 -0.140625 C 21.125 2.1875 16.921875 4.203125 13.015625 5.953125 C -5.625 14.859375 -11.625 24.546875 -8.84375 34.859375 C -6.25 44.5 1.84375 49.15625 11.640625 46.328125 C 23.359375 43.015625 30.375 28.640625 32.171875 4.125 C 54.15625 -9.34375 63.625 -28.21875 67.328125 -54.84375 C 67.34375 -55.390625 67.390625 -55.90625 67.25 -56.40625 C 66.90625 -57.703125 65.78125 -58.640625 64.28125 -58.9375 Z M 9.78125 39.46875 C 4.265625 41.140625 -0.46875 38.546875 -2.015625 32.828125 C -3.390625 25.125 1.828125 19.15625 16.171875 12.484375 C 19 11.1875 21.75 9.75 24.6875 8.25 C 23.75 26.234375 18.5625 36.921875 9.78125 39.46875 Z M 9.78125 39.46875 "/></g></g></g><g fill="#ff3873" fill-opacity="0.502"><g transform="translate(239.193811, 326.228826)"><g/></g></g><g fill="#ff3873" fill-opacity="0.502"><g transform="translate(288.255864, 312.987172)"><g><path d="M 112.765625 -101.671875 C 104.46875 -132.421875 85.703125 -151.234375 54.875 -144.46875 C 21.6875 -135.515625 8.109375 -104.5 17.5 -68.421875 C 18.03125 -66.46875 20.0625 -65.421875 21.859375 -65.90625 C 23.828125 -66.4375 24.890625 -68.328125 24.359375 -70.28125 C 16.234375 -101.765625 26.96875 -129.578125 56.734375 -137.609375 C 83.09375 -143.3125 98.59375 -126.796875 105.875 -99.8125 C 113.859375 -70.203125 109.90625 -25.109375 81.4375 -17.421875 C 71.140625 -14.640625 59.890625 -16.703125 57.25 -26.5 C 55.578125 -32.71875 58.828125 -38.859375 64.21875 -40.3125 C 68.46875 -41.453125 72.96875 -38.46875 76 -34.375 C 76.890625 -33.03125 78.40625 -32.578125 79.875 -32.96875 C 82.171875 -33.59375 82.984375 -36.421875 81.75 -38.375 C 77.0625 -45.375 70.046875 -49.265625 62.359375 -47.1875 C 53.359375 -44.765625 47.5 -35.28125 50.375 -24.640625 C 53.953125 -11.40625 67.765625 -6.359375 83.296875 -10.546875 C 115.859375 -19.328125 122.078125 -67.15625 112.765625 -101.671875 Z M 56.25 -117.296875 C 56.984375 -121.703125 60.265625 -127.15625 63.84375 -128.84375 C 65.078125 -129.5 66.234375 -131.046875 65.5625 -133.515625 C 64.671875 -135.546875 62.828125 -136.453125 60.6875 -135.34375 C 54.75 -131.984375 50.75 -126 49.15625 -118.90625 C 47 -108.671875 46.515625 -95.546875 46.140625 -81.9375 C 45.203125 -54.84375 44.796875 -19.296875 21.90625 -13.125 C 12.75 -10.640625 3.59375 -13.953125 0.859375 -24.109375 C -1.703125 -33.578125 3.421875 -45.84375 12.421875 -48.28125 C 13.390625 -48.546875 14.265625 -48.59375 15.125 -48.65625 C 17.53125 -48.765625 19.234375 -50.984375 18.609375 -53.28125 C 18.21875 -54.75 16.875 -55.796875 15.28125 -55.890625 C 13.5 -55.921875 11.984375 -55.703125 10.34375 -55.265625 C -2.078125 -51.90625 -9.75 -36.140625 -5.921875 -21.921875 C -2.296875 -8.515625 10.515625 -2.65625 23.921875 -6.265625 C 51.078125 -13.59375 52.171875 -49.890625 53.203125 -81.734375 C 53.71875 -94.859375 54.125 -107.59375 56.25 -117.296875 Z M 56.25 -117.296875 "/></g></g></g><g fill="#ff3873" fill-opacity="0.502"><g transform="translate(424.484839, 276.219512)"><g><path d="M 48.703125 -54.90625 C 46.734375 -55.078125 44.96875 -53.734375 44.609375 -51.859375 C 41.140625 -28.296875 33.234375 -15.984375 19.734375 -12.6875 C 9.84375 -10.375 3.0625 -14.6875 0.859375 -24.109375 C 0.109375 -27.5625 -0.234375 -30.8125 -0.25 -35.375 C 16.71875 -44.6875 38.265625 -61.734375 33.59375 -79.078125 C 31.46875 -86.921875 24.59375 -89.625 16.421875 -87.421875 C -2.875 -82.21875 -10.71875 -43.609375 -6.046875 -22.40625 C -2.75 -8.890625 7.84375 -2.109375 21.421875 -5.78125 C 37.9375 -10.234375 47.453125 -24.390625 51.734375 -50.8125 C 51.765625 -51.34375 51.859375 -51.703125 51.71875 -52.203125 C 51.375 -53.5 50.1875 -54.59375 48.703125 -54.90625 Z M 0.25 -43.921875 C 2.078125 -57.9375 6.96875 -77.515625 18.265625 -80.5625 C 21.84375 -81.53125 25.515625 -81.640625 26.71875 -77.234375 C 29.984375 -65.125 12.671875 -51.84375 0.25 -43.921875 Z M 0.25 -43.921875 "/></g></g></g><g fill="#ff3873" fill-opacity="0.502"><g transform="translate(476.32709, 262.227493)"><g><path d="M 48.703125 -54.90625 C 46.734375 -55.078125 44.96875 -53.734375 44.609375 -51.859375 C 41.515625 -30.84375 34.453125 -16.65625 18.578125 -12.375 C 10.734375 -10.265625 3.828125 -15.0625 1.359375 -24.234375 C -3.9375 -43.859375 5.828125 -77.203125 18.59375 -80.65625 C 23.5 -81.984375 26.375 -79.765625 27.921875 -74.03125 C 29.6875 -67.484375 26.515625 -63.65625 27.140625 -61.375 C 27.71875 -59.25 29.328125 -58.4375 31.453125 -59.015625 C 35.21875 -60.03125 36.78125 -68.53125 34.78125 -75.890625 C 32.359375 -84.875 26.0625 -90.03125 16.75 -87.515625 C 0.0625 -83.015625 -12.4375 -48.0625 -5.546875 -22.546875 C -1.921875 -9.125 8.34375 -2.25 20.28125 -5.46875 C 39.25 -10.59375 47.765625 -25.859375 51.734375 -50.8125 C 51.765625 -51.34375 51.859375 -51.703125 51.71875 -52.203125 C 51.375 -53.5 50.1875 -54.59375 48.703125 -54.90625 Z M 48.703125 -54.90625 "/></g></g></g><g fill="#ff3873" fill-opacity="0.502"><g transform="translate(528.169341, 248.235475)"><g><path d="M 3.53125 -92.890625 C 6.640625 -93.734375 8.421875 -96.859375 7.59375 -99.96875 C 6.75 -103.078125 3.640625 -104.84375 0.53125 -104 C -2.578125 -103.171875 -4.53125 -100.03125 -3.6875 -96.921875 C -2.859375 -93.8125 0.421875 -92.0625 3.53125 -92.890625 Z M 26.953125 -49.03125 C 26.40625 -49.046875 26.046875 -49.140625 25.546875 -49 C 24.234375 -48.65625 23.15625 -47.484375 22.859375 -46 C 20.421875 -30.953125 17.4375 -12.0625 7.296875 -9.328125 C 3.859375 -8.40625 1.828125 -10.125 0.546875 -14.890625 C -1.359375 -21.90625 -0.4375 -30.234375 3.375 -79.171875 C 3.609375 -82.21875 1.046875 -83.28125 -1.078125 -82.703125 C -2.390625 -82.34375 -3.484375 -81.1875 -3.578125 -79.5625 C -5.734375 -58.984375 -9.28125 -25.90625 -6.3125 -13.046875 C -4.609375 -5.421875 1.3125 -0.359375 9.15625 -2.46875 C 22.90625 -6.1875 26.90625 -25.15625 29.984375 -44.9375 C 30.015625 -45.46875 30.046875 -46.015625 29.90625 -46.5 C 29.5625 -47.8125 28.390625 -48.90625 26.953125 -49.03125 Z M 26.953125 -49.03125 "/></g></g></g><g fill="#ff3873" fill-opacity="0.502"><g transform="translate(558.260744, 240.113925)"><g><path d="M 67.1875 -59.890625 C 66.640625 -59.90625 66.109375 -59.953125 65.78125 -59.859375 C 64.46875 -59.515625 63.390625 -58.34375 63.046875 -57.03125 C 59.90625 -38.09375 55.703125 -22.390625 43.9375 -19.21875 C 40.171875 -18.203125 37.90625 -20.78125 36.859375 -24.703125 C 35.703125 -28.953125 36.046875 -39.375 36.484375 -47.5625 C 36.6875 -52.546875 41.15625 -113.40625 41.515625 -118.59375 C 41.6875 -120.578125 39.78125 -123.03125 37.015625 -122.28125 C 35.703125 -121.9375 34.609375 -120.765625 34.484375 -119.328125 L 32.5625 -91.953125 L 31.75 -82.609375 C 27.765625 -86.96875 22.140625 -88.96875 14.78125 -86.984375 C -5 -81.640625 -11.046875 -38.9375 -5.265625 -17.53125 C -2.609375 -7.703125 3.75 -1.015625 12.921875 -3.484375 C 21.25 -5.734375 26.296875 -13.765625 29.796875 -23.484375 C 32.28125 -14.328125 38.109375 -10.28125 45.796875 -12.359375 C 60.84375 -16.421875 66.25 -32.796875 70.21875 -55.796875 C 70.25 -56.328125 70.28125 -56.875 70.140625 -57.359375 C 69.796875 -58.671875 68.671875 -59.59375 67.1875 -59.890625 Z M 10.90625 -10.296875 C 5.984375 -8.96875 3.234375 -13.328125 1.296875 -20.53125 C -2.71875 -36.8125 1.71875 -75.5625 16.625 -80.125 C 23 -81.84375 27.96875 -78.4375 30.3125 -71 C 30.390625 -70.6875 30.484375 -70.34375 30.46875 -69.828125 C 30.03125 -66.890625 29.765625 -63.296875 29.203125 -59.484375 C 27.1875 -41.03125 24.140625 -13.875 10.90625 -10.296875 Z M 10.90625 -10.296875 "/></g></g></g><g fill="#ff3873" fill-opacity="0.502"><g transform="translate(628.583031, 221.134218)"><g><path d="M 48.703125 -54.90625 C 46.734375 -55.078125 44.96875 -53.734375 44.609375 -51.859375 C 41.140625 -28.296875 33.234375 -15.984375 19.734375 -12.6875 C 9.84375 -10.375 3.0625 -14.6875 0.859375 -24.109375 C 0.109375 -27.5625 -0.234375 -30.8125 -0.25 -35.375 C 16.71875 -44.6875 38.265625 -61.734375 33.59375 -79.078125 C 31.46875 -86.921875 24.59375 -89.625 16.421875 -87.421875 C -2.875 -82.21875 -10.71875 -43.609375 -6.046875 -22.40625 C -2.75 -8.890625 7.84375 -2.109375 21.421875 -5.78125 C 37.9375 -10.234375 47.453125 -24.390625 51.734375 -50.8125 C 51.765625 -51.34375 51.859375 -51.703125 51.71875 -52.203125 C 51.375 -53.5 50.1875 -54.59375 48.703125 -54.90625 Z M 0.25 -43.921875 C 2.078125 -57.9375 6.96875 -77.515625 18.265625 -80.5625 C 21.84375 -81.53125 25.515625 -81.640625 26.71875 -77.234375 C 29.984375 -65.125 12.671875 -51.84375 0.25 -43.921875 Z M 0.25 -43.921875 "/></g></g></g><g fill="#e8894c" fill-opacity="1"><g transform="translate(167.877962, 343.584611)"><g><path d="M 64.28125 -58.9375 C 63.75 -58.953125 63.21875 -58.984375 62.71875 -58.859375 C 61.40625 -58.5 60.5 -57.375 60.1875 -55.890625 C 57.21875 -34.40625 49.828125 -16.25 32.734375 -4.8125 L 33.265625 -12.65625 L 36.265625 -53.484375 C 37.671875 -69.125 39.046875 -81.59375 39.84375 -89.015625 C 40.015625 -91.671875 37.09375 -93.359375 35.140625 -92.828125 C 33.828125 -92.46875 32.78125 -91.140625 32.65625 -89.6875 C 29.5 -57.796875 29.6875 -61 29.265625 -54.046875 C 27.8125 -33.484375 22.015625 -13.296875 13.34375 -10.96875 C 4.03125 -8.453125 0.984375 -13.953125 -0.296875 -18.6875 C -1.890625 -24.5625 -0.484375 -30.40625 1.375 -52.140625 L 3.640625 -79.421875 C 3.921875 -81.765625 1.9375 -83.875 -0.84375 -83.125 C -2.15625 -82.765625 -3.25 -81.59375 -3.375 -80.15625 L -5.84375 -52.8125 C -7.703125 -34.421875 -9.046875 -24.40625 -7.328125 -16.796875 C -5.125 -8.625 1.3125 -0.359375 15.203125 -4.109375 C 19.796875 -5.34375 23.34375 -8.40625 26.140625 -13.015625 L 25.21875 -0.140625 C 21.125 2.1875 16.921875 4.203125 13.015625 5.953125 C -5.625 14.859375 -11.625 24.546875 -8.84375 34.859375 C -6.25 44.5 1.84375 49.15625 11.640625 46.328125 C 23.359375 43.015625 30.375 28.640625 32.171875 4.125 C 54.15625 -9.34375 63.625 -28.21875 67.328125 -54.84375 C 67.34375 -55.390625 67.390625 -55.90625 67.25 -56.40625 C 66.90625 -57.703125 65.78125 -58.640625 64.28125 -58.9375 Z M 9.78125 39.46875 C 4.265625 41.140625 -0.46875 38.546875 -2.015625 32.828125 C -3.390625 25.125 1.828125 19.15625 16.171875 12.484375 C 19 11.1875 21.75 9.75 24.6875 8.25 C 23.75 26.234375 18.5625 36.921875 9.78125 39.46875 Z M 9.78125 39.46875 "/></g></g></g><g fill="#e8894c" fill-opacity="1"><g transform="translate(235.25653, 325.399403)"><g/></g></g><g fill="#e8894c" fill-opacity="1"><g transform="translate(284.318583, 312.157749)"><g><path d="M 112.765625 -101.671875 C 104.46875 -132.421875 85.703125 -151.234375 54.875 -144.46875 C 21.6875 -135.515625 8.109375 -104.5 17.5 -68.421875 C 18.03125 -66.46875 20.0625 -65.421875 21.859375 -65.90625 C 23.828125 -66.4375 24.890625 -68.328125 24.359375 -70.28125 C 16.234375 -101.765625 26.96875 -129.578125 56.734375 -137.609375 C 83.09375 -143.3125 98.59375 -126.796875 105.875 -99.8125 C 113.859375 -70.203125 109.90625 -25.109375 81.4375 -17.421875 C 71.140625 -14.640625 59.890625 -16.703125 57.25 -26.5 C 55.578125 -32.71875 58.828125 -38.859375 64.21875 -40.3125 C 68.46875 -41.453125 72.96875 -38.46875 76 -34.375 C 76.890625 -33.03125 78.40625 -32.578125 79.875 -32.96875 C 82.171875 -33.59375 82.984375 -36.421875 81.75 -38.375 C 77.0625 -45.375 70.046875 -49.265625 62.359375 -47.1875 C 53.359375 -44.765625 47.5 -35.28125 50.375 -24.640625 C 53.953125 -11.40625 67.765625 -6.359375 83.296875 -10.546875 C 115.859375 -19.328125 122.078125 -67.15625 112.765625 -101.671875 Z M 56.25 -117.296875 C 56.984375 -121.703125 60.265625 -127.15625 63.84375 -128.84375 C 65.078125 -129.5 66.234375 -131.046875 65.5625 -133.515625 C 64.671875 -135.546875 62.828125 -136.453125 60.6875 -135.34375 C 54.75 -131.984375 50.75 -126 49.15625 -118.90625 C 47 -108.671875 46.515625 -95.546875 46.140625 -81.9375 C 45.203125 -54.84375 44.796875 -19.296875 21.90625 -13.125 C 12.75 -10.640625 3.59375 -13.953125 0.859375 -24.109375 C -1.703125 -33.578125 3.421875 -45.84375 12.421875 -48.28125 C 13.390625 -48.546875 14.265625 -48.59375 15.125 -48.65625 C 17.53125 -48.765625 19.234375 -50.984375 18.609375 -53.28125 C 18.21875 -54.75 16.875 -55.796875 15.28125 -55.890625 C 13.5 -55.921875 11.984375 -55.703125 10.34375 -55.265625 C -2.078125 -51.90625 -9.75 -36.140625 -5.921875 -21.921875 C -2.296875 -8.515625 10.515625 -2.65625 23.921875 -6.265625 C 51.078125 -13.59375 52.171875 -49.890625 53.203125 -81.734375 C 53.71875 -94.859375 54.125 -107.59375 56.25 -117.296875 Z M 56.25 -117.296875 "/></g></g></g><g fill="#e8894c" fill-opacity="1"><g transform="translate(420.547557, 275.390088)"><g><path d="M 48.703125 -54.90625 C 46.734375 -55.078125 44.96875 -53.734375 44.609375 -51.859375 C 41.140625 -28.296875 33.234375 -15.984375 19.734375 -12.6875 C 9.84375 -10.375 3.0625 -14.6875 0.859375 -24.109375 C 0.109375 -27.5625 -0.234375 -30.8125 -0.25 -35.375 C 16.71875 -44.6875 38.265625 -61.734375 33.59375 -79.078125 C 31.46875 -86.921875 24.59375 -89.625 16.421875 -87.421875 C -2.875 -82.21875 -10.71875 -43.609375 -6.046875 -22.40625 C -2.75 -8.890625 7.84375 -2.109375 21.421875 -5.78125 C 37.9375 -10.234375 47.453125 -24.390625 51.734375 -50.8125 C 51.765625 -51.34375 51.859375 -51.703125 51.71875 -52.203125 C 51.375 -53.5 50.1875 -54.59375 48.703125 -54.90625 Z M 0.25 -43.921875 C 2.078125 -57.9375 6.96875 -77.515625 18.265625 -80.5625 C 21.84375 -81.53125 25.515625 -81.640625 26.71875 -77.234375 C 29.984375 -65.125 12.671875 -51.84375 0.25 -43.921875 Z M 0.25 -43.921875 "/></g></g></g><g fill="#e8894c" fill-opacity="1"><g transform="translate(472.389809, 261.39807)"><g><path d="M 48.703125 -54.90625 C 46.734375 -55.078125 44.96875 -53.734375 44.609375 -51.859375 C 41.515625 -30.84375 34.453125 -16.65625 18.578125 -12.375 C 10.734375 -10.265625 3.828125 -15.0625 1.359375 -24.234375 C -3.9375 -43.859375 5.828125 -77.203125 18.59375 -80.65625 C 23.5 -81.984375 26.375 -79.765625 27.921875 -74.03125 C 29.6875 -67.484375 26.515625 -63.65625 27.140625 -61.375 C 27.71875 -59.25 29.328125 -58.4375 31.453125 -59.015625 C 35.21875 -60.03125 36.78125 -68.53125 34.78125 -75.890625 C 32.359375 -84.875 26.0625 -90.03125 16.75 -87.515625 C 0.0625 -83.015625 -12.4375 -48.0625 -5.546875 -22.546875 C -1.921875 -9.125 8.34375 -2.25 20.28125 -5.46875 C 39.25 -10.59375 47.765625 -25.859375 51.734375 -50.8125 C 51.765625 -51.34375 51.859375 -51.703125 51.71875 -52.203125 C 51.375 -53.5 50.1875 -54.59375 48.703125 -54.90625 Z M 48.703125 -54.90625 "/></g></g></g><g fill="#e8894c" fill-opacity="1"><g transform="translate(524.23206, 247.406052)"><g><path d="M 3.53125 -92.890625 C 6.640625 -93.734375 8.421875 -96.859375 7.59375 -99.96875 C 6.75 -103.078125 3.640625 -104.84375 0.53125 -104 C -2.578125 -103.171875 -4.53125 -100.03125 -3.6875 -96.921875 C -2.859375 -93.8125 0.421875 -92.0625 3.53125 -92.890625 Z M 26.953125 -49.03125 C 26.40625 -49.046875 26.046875 -49.140625 25.546875 -49 C 24.234375 -48.65625 23.15625 -47.484375 22.859375 -46 C 20.421875 -30.953125 17.4375 -12.0625 7.296875 -9.328125 C 3.859375 -8.40625 1.828125 -10.125 0.546875 -14.890625 C -1.359375 -21.90625 -0.4375 -30.234375 3.375 -79.171875 C 3.609375 -82.21875 1.046875 -83.28125 -1.078125 -82.703125 C -2.390625 -82.34375 -3.484375 -81.1875 -3.578125 -79.5625 C -5.734375 -58.984375 -9.28125 -25.90625 -6.3125 -13.046875 C -4.609375 -5.421875 1.3125 -0.359375 9.15625 -2.46875 C 22.90625 -6.1875 26.90625 -25.15625 29.984375 -44.9375 C 30.015625 -45.46875 30.046875 -46.015625 29.90625 -46.5 C 29.5625 -47.8125 28.390625 -48.90625 26.953125 -49.03125 Z M 26.953125 -49.03125 "/></g></g></g><g fill="#e8894c" fill-opacity="1"><g transform="translate(554.323462, 239.284502)"><g><path d="M 67.1875 -59.890625 C 66.640625 -59.90625 66.109375 -59.953125 65.78125 -59.859375 C 64.46875 -59.515625 63.390625 -58.34375 63.046875 -57.03125 C 59.90625 -38.09375 55.703125 -22.390625 43.9375 -19.21875 C 40.171875 -18.203125 37.90625 -20.78125 36.859375 -24.703125 C 35.703125 -28.953125 36.046875 -39.375 36.484375 -47.5625 C 36.6875 -52.546875 41.15625 -113.40625 41.515625 -118.59375 C 41.6875 -120.578125 39.78125 -123.03125 37.015625 -122.28125 C 35.703125 -121.9375 34.609375 -120.765625 34.484375 -119.328125 L 32.5625 -91.953125 L 31.75 -82.609375 C 27.765625 -86.96875 22.140625 -88.96875 14.78125 -86.984375 C -5 -81.640625 -11.046875 -38.9375 -5.265625 -17.53125 C -2.609375 -7.703125 3.75 -1.015625 12.921875 -3.484375 C 21.25 -5.734375 26.296875 -13.765625 29.796875 -23.484375 C 32.28125 -14.328125 38.109375 -10.28125 45.796875 -12.359375 C 60.84375 -16.421875 66.25 -32.796875 70.21875 -55.796875 C 70.25 -56.328125 70.28125 -56.875 70.140625 -57.359375 C 69.796875 -58.671875 68.671875 -59.59375 67.1875 -59.890625 Z M 10.90625 -10.296875 C 5.984375 -8.96875 3.234375 -13.328125 1.296875 -20.53125 C -2.71875 -36.8125 1.71875 -75.5625 16.625 -80.125 C 23 -81.84375 27.96875 -78.4375 30.3125 -71 C 30.390625 -70.6875 30.484375 -70.34375 30.46875 -69.828125 C 30.03125 -66.890625 29.765625 -63.296875 29.203125 -59.484375 C 27.1875 -41.03125 24.140625 -13.875 10.90625 -10.296875 Z M 10.90625 -10.296875 "/></g></g></g><g fill="#e8894c" fill-opacity="1"><g transform="translate(624.64575, 220.304795)"><g><path d="M 48.703125 -54.90625 C 46.734375 -55.078125 44.96875 -53.734375 44.609375 -51.859375 C 41.140625 -28.296875 33.234375 -15.984375 19.734375 -12.6875 C 9.84375 -10.375 3.0625 -14.6875 0.859375 -24.109375 C 0.109375 -27.5625 -0.234375 -30.8125 -0.25 -35.375 C 16.71875 -44.6875 38.265625 -61.734375 33.59375 -79.078125 C 31.46875 -86.921875 24.59375 -89.625 16.421875 -87.421875 C -2.875 -82.21875 -10.71875 -43.609375 -6.046875 -22.40625 C -2.75 -8.890625 7.84375 -2.109375 21.421875 -5.78125 C 37.9375 -10.234375 47.453125 -24.390625 51.734375 -50.8125 C 51.765625 -51.34375 51.859375 -51.703125 51.71875 -52.203125 C 51.375 -53.5 50.1875 -54.59375 48.703125 -54.90625 Z M 0.25 -43.921875 C 2.078125 -57.9375 6.96875 -77.515625 18.265625 -80.5625 C 21.84375 -81.53125 25.515625 -81.640625 26.71875 -77.234375 C 29.984375 -65.125 12.671875 -51.84375 0.25 -43.921875 Z M 0.25 -43.921875 "/></g></g></g><g fill="#000000" fill-opacity="1"><g transform="translate(125.083569, 466.350693)"><g><path d="M 10.453125 -18.28125 C 11.734375 -18.28125 12.984375 -18.03125 14.203125 -17.53125 C 15.429688 -17.039062 16.488281 -16.351562 17.375 -15.46875 L 15.578125 -13.234375 C 14.921875 -13.941406 14.140625 -14.503906 13.234375 -14.921875 C 12.328125 -15.335938 11.414062 -15.546875 10.5 -15.546875 C 8.6875 -15.546875 7.148438 -14.925781 5.890625 -13.6875 C 4.628906 -12.445312 4 -10.9375 4 -9.15625 C 4 -7.351562 4.628906 -5.832031 5.890625 -4.59375 C 7.148438 -3.351562 8.6875 -2.734375 10.5 -2.734375 C 12.394531 -2.734375 14.085938 -3.453125 15.578125 -4.890625 L 17.390625 -2.859375 C 16.453125 -1.941406 15.359375 -1.210938 14.109375 -0.671875 C 12.867188 -0.140625 11.613281 0.125 10.34375 0.125 C 7.675781 0.125 5.429688 -0.757812 3.609375 -2.53125 C 1.796875 -4.3125 0.890625 -6.507812 0.890625 -9.125 C 0.890625 -11.707031 1.8125 -13.878906 3.65625 -15.640625 C 5.5 -17.398438 7.765625 -18.28125 10.453125 -18.28125 Z M 10.453125 -18.28125 "/></g></g></g><g fill="#000000" fill-opacity="1"><g transform="translate(151.000099, 466.350693)"><g><path d="M 3.671875 -15.640625 C 5.523438 -17.398438 7.8125 -18.28125 10.53125 -18.28125 C 13.25 -18.28125 15.535156 -17.398438 17.390625 -15.640625 C 19.242188 -13.878906 20.171875 -11.695312 20.171875 -9.09375 C 20.171875 -6.5 19.242188 -4.3125 17.390625 -2.53125 C 15.535156 -0.757812 13.25 0.125 10.53125 0.125 C 7.8125 0.125 5.523438 -0.757812 3.671875 -2.53125 C 1.816406 -4.3125 0.890625 -6.5 0.890625 -9.09375 C 0.890625 -11.695312 1.816406 -13.878906 3.671875 -15.640625 Z M 10.5625 -15.515625 C 8.757812 -15.515625 7.210938 -14.894531 5.921875 -13.65625 C 4.640625 -12.414062 4 -10.894531 4 -9.09375 C 4 -7.289062 4.644531 -5.757812 5.9375 -4.5 C 7.226562 -3.25 8.765625 -2.625 10.546875 -2.625 C 12.335938 -2.625 13.863281 -3.25 15.125 -4.5 C 16.394531 -5.757812 17.03125 -7.289062 17.03125 -9.09375 C 17.03125 -10.894531 16.394531 -12.414062 15.125 -13.65625 C 13.863281 -14.894531 12.34375 -15.515625 10.5625 -15.515625 Z M 10.5625 -15.515625 "/></g></g></g><g fill="#000000" fill-opacity="1"><g transform="translate(179.853754, 466.350693)"><g><path d="M 18.171875 0 L 15.15625 0 L 5.453125 -13.046875 L 5.453125 0 L 2.390625 0 L 2.390625 -18.203125 L 5.40625 -18.203125 L 15.15625 -5.125 L 15.15625 -18.203125 L 18.171875 -18.203125 Z M 18.171875 0 "/></g></g></g><g fill="#000000" fill-opacity="1"><g transform="translate(208.239552, 466.350693)"><g/></g></g><g fill="#000000" fill-opacity="1"><g transform="translate(222.745498, 466.350693)"><g><path d="M 18.171875 0 L 15.15625 0 L 5.453125 -13.046875 L 5.453125 0 L 2.390625 0 L 2.390625 -18.203125 L 5.40625 -18.203125 L 15.15625 -5.125 L 15.15625 -18.203125 L 18.171875 -18.203125 Z M 18.171875 0 "/></g></g></g><g fill="#000000" fill-opacity="1"><g transform="translate(251.131297, 466.350693)"><g><path d="M 17.859375 -18.203125 L 17.859375 -7.546875 C 17.859375 -5.171875 17.15625 -3.296875 15.75 -1.921875 C 14.351562 -0.554688 12.421875 0.125 9.953125 0.125 C 7.492188 0.125 5.554688 -0.554688 4.140625 -1.921875 C 2.734375 -3.296875 2.03125 -5.171875 2.03125 -7.546875 L 2.03125 -18.203125 L 5.09375 -18.203125 L 5.09375 -7.546875 C 5.09375 -6.015625 5.53125 -4.8125 6.40625 -3.9375 C 7.28125 -3.0625 8.472656 -2.625 9.984375 -2.625 C 11.472656 -2.625 12.644531 -3.054688 13.5 -3.921875 C 14.363281 -4.785156 14.796875 -5.992188 14.796875 -7.546875 L 14.796875 -18.203125 Z M 17.859375 -18.203125 "/></g></g></g><g fill="#000000" fill-opacity="1"><g transform="translate(278.789308, 466.350693)"><g><path d="M 15.390625 -15.4375 L 5.453125 -15.4375 L 5.453125 -10.53125 L 14.359375 -10.53125 L 14.359375 -7.78125 L 5.453125 -7.78125 L 5.453125 -2.75 L 15.703125 -2.75 L 15.703125 0 L 2.390625 0 L 2.390625 -18.203125 L 15.390625 -18.203125 Z M 15.390625 -15.4375 "/></g></g></g><g fill="#000000" fill-opacity="1"><g transform="translate(303.640164, 466.350693)"><g><path d="M 8.375 -18.328125 C 10.726562 -18.328125 12.847656 -17.703125 14.734375 -16.453125 L 13.46875 -13.75 C 11.613281 -14.875 9.835938 -15.4375 8.140625 -15.4375 C 7.222656 -15.4375 6.5 -15.269531 5.96875 -14.9375 C 5.4375 -14.613281 5.171875 -14.148438 5.171875 -13.546875 C 5.171875 -12.941406 5.410156 -12.425781 5.890625 -12 C 6.378906 -11.570312 6.988281 -11.257812 7.71875 -11.0625 C 8.445312 -10.863281 9.234375 -10.613281 10.078125 -10.3125 C 10.929688 -10.007812 11.722656 -9.6875 12.453125 -9.34375 C 13.179688 -9.007812 13.78125 -8.484375 14.25 -7.765625 C 14.726562 -7.046875 14.96875 -6.171875 14.96875 -5.140625 C 14.96875 -3.546875 14.332031 -2.269531 13.0625 -1.3125 C 11.789062 -0.363281 10.140625 0.109375 8.109375 0.109375 C 6.722656 0.109375 5.378906 -0.148438 4.078125 -0.671875 C 2.773438 -1.191406 1.640625 -1.894531 0.671875 -2.78125 L 2 -5.4375 C 2.914062 -4.582031 3.925781 -3.925781 5.03125 -3.46875 C 6.132812 -3.007812 7.175781 -2.78125 8.15625 -2.78125 C 9.238281 -2.78125 10.078125 -2.972656 10.671875 -3.359375 C 11.265625 -3.753906 11.5625 -4.296875 11.5625 -4.984375 C 11.5625 -5.609375 11.316406 -6.132812 10.828125 -6.5625 C 10.347656 -6.988281 9.742188 -7.300781 9.015625 -7.5 C 8.296875 -7.695312 7.507812 -7.9375 6.65625 -8.21875 C 5.800781 -8.507812 5.007812 -8.816406 4.28125 -9.140625 C 3.5625 -9.460938 2.957031 -9.976562 2.46875 -10.6875 C 1.976562 -11.394531 1.734375 -12.253906 1.734375 -13.265625 C 1.734375 -14.804688 2.335938 -16.035156 3.546875 -16.953125 C 4.765625 -17.867188 6.375 -18.328125 8.375 -18.328125 Z M 8.375 -18.328125 "/></g></g></g><g fill="#000000" fill-opacity="1"><g transform="translate(327.607295, 466.350693)"><g><path d="M 14.8125 -15.4375 L 9.046875 -15.4375 L 9.046875 0 L 5.984375 0 L 5.984375 -15.4375 L 0.234375 -15.4375 L 0.234375 -18.203125 L 14.8125 -18.203125 Z M 14.8125 -15.4375 "/></g></g></g><g fill="#000000" fill-opacity="1"><g transform="translate(350.456751, 466.350693)"><g><path d="M 13.9375 0 L 10.609375 -5.515625 C 10.429688 -5.492188 10.15625 -5.484375 9.78125 -5.484375 L 5.453125 -5.484375 L 5.453125 0 L 2.390625 0 L 2.390625 -18.203125 L 9.78125 -18.203125 C 12.101562 -18.203125 13.90625 -17.660156 15.1875 -16.578125 C 16.46875 -15.492188 17.109375 -13.960938 17.109375 -11.984375 C 17.109375 -10.523438 16.78125 -9.289062 16.125 -8.28125 C 15.476562 -7.28125 14.550781 -6.546875 13.34375 -6.078125 L 17.421875 0 Z M 5.453125 -8.234375 L 9.78125 -8.234375 C 12.726562 -8.234375 14.203125 -9.457031 14.203125 -11.90625 C 14.203125 -14.257812 12.726562 -15.4375 9.78125 -15.4375 L 5.453125 -15.4375 Z M 5.453125 -8.234375 "/></g></g></g><g fill="#000000" fill-opacity="1"><g transform="translate(377.049087, 466.350693)"><g><path d="M 14.140625 -4.109375 L 4.96875 -4.109375 L 3.21875 0 L 0.03125 0 L 8.0625 -18.203125 L 11.203125 -18.203125 L 19.15625 0 L 15.890625 0 Z M 12.96875 -6.84375 L 9.546875 -14.921875 L 6.109375 -6.84375 Z M 12.96875 -6.84375 "/></g></g></g><g fill="#000000" fill-opacity="1"><g transform="translate(404.031302, 466.350693)"><g/></g></g><g fill="#000000" fill-opacity="1"><g transform="translate(418.53726, 466.350693)"><g><path d="M 2.390625 -18.203125 L 9.640625 -18.203125 C 11.929688 -18.203125 13.703125 -17.660156 14.953125 -16.578125 C 16.210938 -15.492188 16.84375 -13.960938 16.84375 -11.984375 C 16.84375 -9.921875 16.210938 -8.320312 14.953125 -7.1875 C 13.703125 -6.050781 11.929688 -5.484375 9.640625 -5.484375 L 5.453125 -5.484375 L 5.453125 0 L 2.390625 0 Z M 5.453125 -15.4375 L 5.453125 -8.234375 L 9.515625 -8.234375 C 12.441406 -8.234375 13.90625 -9.457031 13.90625 -11.90625 C 13.90625 -14.257812 12.441406 -15.4375 9.515625 -15.4375 Z M 5.453125 -15.4375 "/></g></g></g><g fill="#000000" fill-opacity="1"><g transform="translate(443.829983, 466.350693)"><g><path d="M 5.453125 -2.78125 L 13.34375 -2.78125 L 13.34375 0 L 2.390625 0 L 2.390625 -18.203125 L 5.453125 -18.203125 Z M 5.453125 -2.78125 "/></g></g></g><g fill="#000000" fill-opacity="1"><g transform="translate(465.509784, 466.350693)"><g><path d="M 14.140625 -4.109375 L 4.96875 -4.109375 L 3.21875 0 L 0.03125 0 L 8.0625 -18.203125 L 11.203125 -18.203125 L 19.15625 0 L 15.890625 0 Z M 12.96875 -6.84375 L 9.546875 -14.921875 L 6.109375 -6.84375 Z M 12.96875 -6.84375 "/></g></g></g><g fill="#000000" fill-opacity="1"><g transform="translate(492.491999, 466.350693)"><g><path d="M 14.8125 -15.4375 L 9.046875 -15.4375 L 9.046875 0 L 5.984375 0 L 5.984375 -15.4375 L 0.234375 -15.4375 L 0.234375 -18.203125 L 14.8125 -18.203125 Z M 14.8125 -15.4375 "/></g></g></g><g fill="#000000" fill-opacity="1"><g transform="translate(515.341454, 466.350693)"><g><path d="M 14.140625 -4.109375 L 4.96875 -4.109375 L 3.21875 0 L 0.03125 0 L 8.0625 -18.203125 L 11.203125 -18.203125 L 19.15625 0 L 15.890625 0 Z M 12.96875 -6.84375 L 9.546875 -14.921875 L 6.109375 -6.84375 Z M 12.96875 -6.84375 "/></g></g></g><g fill="#000000" fill-opacity="1"><g transform="translate(542.323692, 466.350693)"><g><path d="M 14.59375 -15.4375 L 5.453125 -15.4375 L 5.453125 -10.1875 L 13.734375 -10.1875 L 13.734375 -7.46875 L 5.453125 -7.46875 L 5.453125 0 L 2.390625 0 L 2.390625 -18.203125 L 14.609375 -18.203125 Z M 14.59375 -15.4375 "/></g></g></g><g fill="#000000" fill-opacity="1"><g transform="translate(565.069189, 466.350693)"><g><path d="M 3.671875 -15.640625 C 5.523438 -17.398438 7.8125 -18.28125 10.53125 -18.28125 C 13.25 -18.28125 15.535156 -17.398438 17.390625 -15.640625 C 19.242188 -13.878906 20.171875 -11.695312 20.171875 -9.09375 C 20.171875 -6.5 19.242188 -4.3125 17.390625 -2.53125 C 15.535156 -0.757812 13.25 0.125 10.53125 0.125 C 7.8125 0.125 5.523438 -0.757812 3.671875 -2.53125 C 1.816406 -4.3125 0.890625 -6.5 0.890625 -9.09375 C 0.890625 -11.695312 1.816406 -13.878906 3.671875 -15.640625 Z M 10.5625 -15.515625 C 8.757812 -15.515625 7.210938 -14.894531 5.921875 -13.65625 C 4.640625 -12.414062 4 -10.894531 4 -9.09375 C 4 -7.289062 4.644531 -5.757812 5.9375 -4.5 C 7.226562 -3.25 8.765625 -2.625 10.546875 -2.625 C 12.335938 -2.625 13.863281 -3.25 15.125 -4.5 C 16.394531 -5.757812 17.03125 -7.289062 17.03125 -9.09375 C 17.03125 -10.894531 16.394531 -12.414062 15.125 -13.65625 C 13.863281 -14.894531 12.34375 -15.515625 10.5625 -15.515625 Z M 10.5625 -15.515625 "/></g></g></g><g fill="#000000" fill-opacity="1"><g transform="translate(593.922857, 466.350693)"><g><path d="M 13.9375 0 L 10.609375 -5.515625 C 10.429688 -5.492188 10.15625 -5.484375 9.78125 -5.484375 L 5.453125 -5.484375 L 5.453125 0 L 2.390625 0 L 2.390625 -18.203125 L 9.78125 -18.203125 C 12.101562 -18.203125 13.90625 -17.660156 15.1875 -16.578125 C 16.46875 -15.492188 17.109375 -13.960938 17.109375 -11.984375 C 17.109375 -10.523438 16.78125 -9.289062 16.125 -8.28125 C 15.476562 -7.28125 14.550781 -6.546875 13.34375 -6.078125 L 17.421875 0 Z M 5.453125 -8.234375 L 9.78125 -8.234375 C 12.726562 -8.234375 14.203125 -9.457031 14.203125 -11.90625 C 14.203125 -14.257812 12.726562 -15.4375 9.78125 -15.4375 L 5.453125 -15.4375 Z M 5.453125 -8.234375 "/></g></g></g><g fill="#000000" fill-opacity="1"><g transform="translate(620.515171, 466.350693)"><g><path d="M 21.625 0 L 18.796875 0 L 18.765625 -13.59375 L 13.03125 -1.890625 L 11.03125 -1.890625 L 5.28125 -13.59375 L 5.28125 0 L 2.390625 0 L 2.390625 -18.203125 L 6.03125 -18.203125 L 12.03125 -6.109375 L 18.015625 -18.203125 L 21.625 -18.203125 Z M 21.625 0 "/></g></g></g><g fill="#000000" fill-opacity="1"><g transform="translate(652.357943, 466.350693)"><g><path d="M 14.140625 -4.109375 L 4.96875 -4.109375 L 3.21875 0 L 0.03125 0 L 8.0625 -18.203125 L 11.203125 -18.203125 L 19.15625 0 L 15.890625 0 Z M 12.96875 -6.84375 L 9.546875 -14.921875 L 6.109375 -6.84375 Z M 12.96875 -6.84375 "/></g></g></g><g fill="#000000" fill-opacity="1"><g transform="translate(679.340134, 466.350693)"><g><path d="M 2.828125 -3.140625 C 3.265625 -3.140625 3.640625 -2.988281 3.953125 -2.6875 C 4.265625 -2.382812 4.421875 -1.984375 4.421875 -1.484375 C 4.421875 -1.015625 4.265625 -0.554688 3.953125 -0.109375 L 2.46875 2.125 L 0.9375 2.125 L 1.921875 -0.125 C 1.453125 -0.4375 1.21875 -0.890625 1.21875 -1.484375 C 1.21875 -1.960938 1.367188 -2.359375 1.671875 -2.671875 C 1.972656 -2.984375 2.359375 -3.140625 2.828125 -3.140625 Z M 2.828125 -3.140625 "/></g></g></g><g fill="#000000" fill-opacity="1"><g transform="translate(156.607005, 503.100691)"><g><path d="M 18.171875 0 L 15.15625 0 L 5.453125 -13.046875 L 5.453125 0 L 2.390625 0 L 2.390625 -18.203125 L 5.40625 -18.203125 L 15.15625 -5.125 L 15.15625 -18.203125 L 18.171875 -18.203125 Z M 18.171875 0 "/></g></g></g><g fill="#000000" fill-opacity="1"><g transform="translate(184.992804, 503.100691)"><g><path d="M 17.859375 -18.203125 L 17.859375 -7.546875 C 17.859375 -5.171875 17.15625 -3.296875 15.75 -1.921875 C 14.351562 -0.554688 12.421875 0.125 9.953125 0.125 C 7.492188 0.125 5.554688 -0.554688 4.140625 -1.921875 C 2.734375 -3.296875 2.03125 -5.171875 2.03125 -7.546875 L 2.03125 -18.203125 L 5.09375 -18.203125 L 5.09375 -7.546875 C 5.09375 -6.015625 5.53125 -4.8125 6.40625 -3.9375 C 7.28125 -3.0625 8.472656 -2.625 9.984375 -2.625 C 11.472656 -2.625 12.644531 -3.054688 13.5 -3.921875 C 14.363281 -4.785156 14.796875 -5.992188 14.796875 -7.546875 L 14.796875 -18.203125 Z M 17.859375 -18.203125 "/></g></g></g><g fill="#000000" fill-opacity="1"><g transform="translate(212.650815, 503.100691)"><g><path d="M 18.171875 0 L 15.15625 0 L 5.453125 -13.046875 L 5.453125 0 L 2.390625 0 L 2.390625 -18.203125 L 5.40625 -18.203125 L 15.15625 -5.125 L 15.15625 -18.203125 L 18.171875 -18.203125 Z M 18.171875 0 "/></g></g></g><g fill="#000000" fill-opacity="1"><g transform="translate(241.036613, 503.100691)"><g><path d="M 10.453125 -18.28125 C 11.734375 -18.28125 12.984375 -18.03125 14.203125 -17.53125 C 15.429688 -17.039062 16.488281 -16.351562 17.375 -15.46875 L 15.578125 -13.234375 C 14.921875 -13.941406 14.140625 -14.503906 13.234375 -14.921875 C 12.328125 -15.335938 11.414062 -15.546875 10.5 -15.546875 C 8.6875 -15.546875 7.148438 -14.925781 5.890625 -13.6875 C 4.628906 -12.445312 4 -10.9375 4 -9.15625 C 4 -7.351562 4.628906 -5.832031 5.890625 -4.59375 C 7.148438 -3.351562 8.6875 -2.734375 10.5 -2.734375 C 12.394531 -2.734375 14.085938 -3.453125 15.578125 -4.890625 L 17.390625 -2.859375 C 16.453125 -1.941406 15.359375 -1.210938 14.109375 -0.671875 C 12.867188 -0.140625 11.613281 0.125 10.34375 0.125 C 7.675781 0.125 5.429688 -0.757812 3.609375 -2.53125 C 1.796875 -4.3125 0.890625 -6.507812 0.890625 -9.125 C 0.890625 -11.707031 1.8125 -13.878906 3.65625 -15.640625 C 5.5 -17.398438 7.765625 -18.28125 10.453125 -18.28125 Z M 10.453125 -18.28125 "/></g></g></g><g fill="#000000" fill-opacity="1"><g transform="translate(266.953142, 503.100691)"><g><path d="M 14.140625 -4.109375 L 4.96875 -4.109375 L 3.21875 0 L 0.03125 0 L 8.0625 -18.203125 L 11.203125 -18.203125 L 19.15625 0 L 15.890625 0 Z M 12.96875 -6.84375 L 9.546875 -14.921875 L 6.109375 -6.84375 Z M 12.96875 -6.84375 "/></g></g></g><g fill="#000000" fill-opacity="1"><g transform="translate(293.935357, 503.100691)"><g/></g></g><g fill="#000000" fill-opacity="1"><g transform="translate(308.441303, 503.100691)"><g><path d="M 21.625 0 L 18.796875 0 L 18.765625 -13.59375 L 13.03125 -1.890625 L 11.03125 -1.890625 L 5.28125 -13.59375 L 5.28125 0 L 2.390625 0 L 2.390625 -18.203125 L 6.03125 -18.203125 L 12.03125 -6.109375 L 18.015625 -18.203125 L 21.625 -18.203125 Z M 21.625 0 "/></g></g></g><g fill="#000000" fill-opacity="1"><g transform="translate(340.284064, 503.100691)"><g><path d="M 10.5 -20.171875 L 7.859375 -20.171875 L 10.609375 -24.03125 L 13.671875 -22.71875 Z M 14.140625 -4.109375 L 4.96875 -4.109375 L 3.21875 0 L 0.03125 0 L 8.0625 -18.203125 L 11.203125 -18.203125 L 19.15625 0 L 15.890625 0 Z M 12.96875 -6.84375 L 9.546875 -14.921875 L 6.109375 -6.84375 Z M 12.96875 -6.84375 "/></g></g></g><g fill="#000000" fill-opacity="1"><g transform="translate(367.266267, 503.100691)"><g><path d="M 8.375 -18.328125 C 10.726562 -18.328125 12.847656 -17.703125 14.734375 -16.453125 L 13.46875 -13.75 C 11.613281 -14.875 9.835938 -15.4375 8.140625 -15.4375 C 7.222656 -15.4375 6.5 -15.269531 5.96875 -14.9375 C 5.4375 -14.613281 5.171875 -14.148438 5.171875 -13.546875 C 5.171875 -12.941406 5.410156 -12.425781 5.890625 -12 C 6.378906 -11.570312 6.988281 -11.257812 7.71875 -11.0625 C 8.445312 -10.863281 9.234375 -10.613281 10.078125 -10.3125 C 10.929688 -10.007812 11.722656 -9.6875 12.453125 -9.34375 C 13.179688 -9.007812 13.78125 -8.484375 14.25 -7.765625 C 14.726562 -7.046875 14.96875 -6.171875 14.96875 -5.140625 C 14.96875 -3.546875 14.332031 -2.269531 13.0625 -1.3125 C 11.789062 -0.363281 10.140625 0.109375 8.109375 0.109375 C 6.722656 0.109375 5.378906 -0.148438 4.078125 -0.671875 C 2.773438 -1.191406 1.640625 -1.894531 0.671875 -2.78125 L 2 -5.4375 C 2.914062 -4.582031 3.925781 -3.925781 5.03125 -3.46875 C 6.132812 -3.007812 7.175781 -2.78125 8.15625 -2.78125 C 9.238281 -2.78125 10.078125 -2.972656 10.671875 -3.359375 C 11.265625 -3.753906 11.5625 -4.296875 11.5625 -4.984375 C 11.5625 -5.609375 11.316406 -6.132812 10.828125 -6.5625 C 10.347656 -6.988281 9.742188 -7.300781 9.015625 -7.5 C 8.296875 -7.695312 7.507812 -7.9375 6.65625 -8.21875 C 5.800781 -8.507812 5.007812 -8.816406 4.28125 -9.140625 C 3.5625 -9.460938 2.957031 -9.976562 2.46875 -10.6875 C 1.976562 -11.394531 1.734375 -12.253906 1.734375 -13.265625 C 1.734375 -14.804688 2.335938 -16.035156 3.546875 -16.953125 C 4.765625 -17.867188 6.375 -18.328125 8.375 -18.328125 Z M 8.375 -18.328125 "/></g></g></g><g fill="#000000" fill-opacity="1"><g transform="translate(391.233399, 503.100691)"><g/></g></g><g fill="#000000" fill-opacity="1"><g transform="translate(405.739356, 503.100691)"><g><path d="M 14.8125 -15.4375 L 9.046875 -15.4375 L 9.046875 0 L 5.984375 0 L 5.984375 -15.4375 L 0.234375 -15.4375 L 0.234375 -18.203125 L 14.8125 -18.203125 Z M 14.8125 -15.4375 "/></g></g></g><g fill="#000000" fill-opacity="1"><g transform="translate(428.588812, 503.100691)"><g><path d="M 15.390625 -15.4375 L 5.453125 -15.4375 L 5.453125 -10.53125 L 14.359375 -10.53125 L 14.359375 -7.78125 L 5.453125 -7.78125 L 5.453125 -2.75 L 15.703125 -2.75 L 15.703125 0 L 2.390625 0 L 2.390625 -18.203125 L 15.390625 -18.203125 Z M 15.390625 -15.4375 "/></g></g></g><g fill="#000000" fill-opacity="1"><g transform="translate(453.439679, 503.100691)"><g/></g></g><g fill="#000000" fill-opacity="1"><g transform="translate(467.945637, 503.100691)"><g><path d="M 8.375 -18.328125 C 10.726562 -18.328125 12.847656 -17.703125 14.734375 -16.453125 L 13.46875 -13.75 C 11.613281 -14.875 9.835938 -15.4375 8.140625 -15.4375 C 7.222656 -15.4375 6.5 -15.269531 5.96875 -14.9375 C 5.4375 -14.613281 5.171875 -14.148438 5.171875 -13.546875 C 5.171875 -12.941406 5.410156 -12.425781 5.890625 -12 C 6.378906 -11.570312 6.988281 -11.257812 7.71875 -11.0625 C 8.445312 -10.863281 9.234375 -10.613281 10.078125 -10.3125 C 10.929688 -10.007812 11.722656 -9.6875 12.453125 -9.34375 C 13.179688 -9.007812 13.78125 -8.484375 14.25 -7.765625 C 14.726562 -7.046875 14.96875 -6.171875 14.96875 -5.140625 C 14.96875 -3.546875 14.332031 -2.269531 13.0625 -1.3125 C 11.789062 -0.363281 10.140625 0.109375 8.109375 0.109375 C 6.722656 0.109375 5.378906 -0.148438 4.078125 -0.671875 C 2.773438 -1.191406 1.640625 -1.894531 0.671875 -2.78125 L 2 -5.4375 C 2.914062 -4.582031 3.925781 -3.925781 5.03125 -3.46875 C 6.132812 -3.007812 7.175781 -2.78125 8.15625 -2.78125 C 9.238281 -2.78125 10.078125 -2.972656 10.671875 -3.359375 C 11.265625 -3.753906 11.5625 -4.296875 11.5625 -4.984375 C 11.5625 -5.609375 11.316406 -6.132812 10.828125 -6.5625 C 10.347656 -6.988281 9.742188 -7.300781 9.015625 -7.5 C 8.296875 -7.695312 7.507812 -7.9375 6.65625 -8.21875 C 5.800781 -8.507812 5.007812 -8.816406 4.28125 -9.140625 C 3.5625 -9.460938 2.957031 -9.976562 2.46875 -10.6875 C 1.976562 -11.394531 1.734375 -12.253906 1.734375 -13.265625 C 1.734375 -14.804688 2.335938 -16.035156 3.546875 -16.953125 C 4.765625 -17.867188 6.375 -18.328125 8.375 -18.328125 Z M 8.375 -18.328125 "/></g></g></g><g fill="#000000" fill-opacity="1"><g transform="translate(491.912768, 503.100691)"><g><path d="M 15.390625 -15.4375 L 5.453125 -15.4375 L 5.453125 -10.53125 L 14.359375 -10.53125 L 14.359375 -7.78125 L 5.453125 -7.78125 L 5.453125 -2.75 L 15.703125 -2.75 L 15.703125 0 L 2.390625 0 L 2.390625 -18.203125 L 15.390625 -18.203125 Z M 15.390625 -15.4375 "/></g></g></g><g fill="#000000" fill-opacity="1"><g transform="translate(516.763635, 503.100691)"><g><path d="M 18.171875 0 L 15.15625 0 L 5.453125 -13.046875 L 5.453125 0 L 2.390625 0 L 2.390625 -18.203125 L 5.40625 -18.203125 L 15.15625 -5.125 L 15.15625 -18.203125 L 18.171875 -18.203125 Z M 18.171875 0 "/></g></g></g><g fill="#000000" fill-opacity="1"><g transform="translate(545.149421, 503.100691)"><g><path d="M 14.8125 -15.4375 L 9.046875 -15.4375 L 9.046875 0 L 5.984375 0 L 5.984375 -15.4375 L 0.234375 -15.4375 L 0.234375 -18.203125 L 14.8125 -18.203125 Z M 14.8125 -15.4375 "/></g></g></g><g fill="#000000" fill-opacity="1"><g transform="translate(567.998877, 503.100691)"><g><path d="M 5.453125 0 L 2.390625 0 L 2.390625 -18.203125 L 5.453125 -18.203125 Z M 5.453125 0 "/></g></g></g><g fill="#000000" fill-opacity="1"><g transform="translate(583.648489, 503.100691)"><g><path d="M 13.9375 0 L 10.609375 -5.515625 C 10.429688 -5.492188 10.15625 -5.484375 9.78125 -5.484375 L 5.453125 -5.484375 L 5.453125 0 L 2.390625 0 L 2.390625 -18.203125 L 9.78125 -18.203125 C 12.101562 -18.203125 13.90625 -17.660156 15.1875 -16.578125 C 16.46875 -15.492188 17.109375 -13.960938 17.109375 -11.984375 C 17.109375 -10.523438 16.78125 -9.289062 16.125 -8.28125 C 15.476562 -7.28125 14.550781 -6.546875 13.34375 -6.078125 L 17.421875 0 Z M 5.453125 -8.234375 L 9.78125 -8.234375 C 12.726562 -8.234375 14.203125 -9.457031 14.203125 -11.90625 C 14.203125 -14.257812 12.726562 -15.4375 9.78125 -15.4375 L 5.453125 -15.4375 Z M 5.453125 -8.234375 "/></g></g></g><g fill="#000000" fill-opacity="1"><g transform="translate(610.240803, 503.100691)"><g><path d="M 10.5 -20.171875 L 7.859375 -20.171875 L 10.609375 -24.03125 L 13.671875 -22.71875 Z M 14.140625 -4.109375 L 4.96875 -4.109375 L 3.21875 0 L 0.03125 0 L 8.0625 -18.203125 L 11.203125 -18.203125 L 19.15625 0 L 15.890625 0 Z M 12.96875 -6.84375 L 9.546875 -14.921875 L 6.109375 -6.84375 Z M 12.96875 -6.84375 "/></g></g></g><g fill="#000000" fill-opacity="1"><g transform="translate(637.22304, 503.100691)"><g><path d="M 8.375 -18.328125 C 10.726562 -18.328125 12.847656 -17.703125 14.734375 -16.453125 L 13.46875 -13.75 C 11.613281 -14.875 9.835938 -15.4375 8.140625 -15.4375 C 7.222656 -15.4375 6.5 -15.269531 5.96875 -14.9375 C 5.4375 -14.613281 5.171875 -14.148438 5.171875 -13.546875 C 5.171875 -12.941406 5.410156 -12.425781 5.890625 -12 C 6.378906 -11.570312 6.988281 -11.257812 7.71875 -11.0625 C 8.445312 -10.863281 9.234375 -10.613281 10.078125 -10.3125 C 10.929688 -10.007812 11.722656 -9.6875 12.453125 -9.34375 C 13.179688 -9.007812 13.78125 -8.484375 14.25 -7.765625 C 14.726562 -7.046875 14.96875 -6.171875 14.96875 -5.140625 C 14.96875 -3.546875 14.332031 -2.269531 13.0625 -1.3125 C 11.789062 -0.363281 10.140625 0.109375 8.109375 0.109375 C 6.722656 0.109375 5.378906 -0.148438 4.078125 -0.671875 C 2.773438 -1.191406 1.640625 -1.894531 0.671875 -2.78125 L 2 -5.4375 C 2.914062 -4.582031 3.925781 -3.925781 5.03125 -3.46875 C 6.132812 -3.007812 7.175781 -2.78125 8.15625 -2.78125 C 9.238281 -2.78125 10.078125 -2.972656 10.671875 -3.359375 C 11.265625 -3.753906 11.5625 -4.296875 11.5625 -4.984375 C 11.5625 -5.609375 11.316406 -6.132812 10.828125 -6.5625 C 10.347656 -6.988281 9.742188 -7.300781 9.015625 -7.5 C 8.296875 -7.695312 7.507812 -7.9375 6.65625 -8.21875 C 5.800781 -8.507812 5.007812 -8.816406 4.28125 -9.140625 C 3.5625 -9.460938 2.957031 -9.976562 2.46875 -10.6875 C 1.976562 -11.394531 1.734375 -12.253906 1.734375 -13.265625 C 1.734375 -14.804688 2.335938 -16.035156 3.546875 -16.953125 C 4.765625 -17.867188 6.375 -18.328125 8.375 -18.328125 Z M 8.375 -18.328125 "/></g></g></g><g fill="#000000" fill-opacity="1"><g transform="translate(173.634348, 539.850689)"><g><path d="M 2.390625 -18.203125 L 9.640625 -18.203125 C 11.929688 -18.203125 13.703125 -17.660156 14.953125 -16.578125 C 16.210938 -15.492188 16.84375 -13.960938 16.84375 -11.984375 C 16.84375 -9.921875 16.210938 -8.320312 14.953125 -7.1875 C 13.703125 -6.050781 11.929688 -5.484375 9.640625 -5.484375 L 5.453125 -5.484375 L 5.453125 0 L 2.390625 0 Z M 5.453125 -15.4375 L 5.453125 -8.234375 L 9.515625 -8.234375 C 12.441406 -8.234375 13.90625 -9.457031 13.90625 -11.90625 C 13.90625 -14.257812 12.441406 -15.4375 9.515625 -15.4375 Z M 5.453125 -15.4375 "/></g></g></g><g fill="#000000" fill-opacity="1"><g transform="translate(198.927072, 539.850689)"><g><path d="M 15.390625 -15.4375 L 5.453125 -15.4375 L 5.453125 -10.53125 L 14.359375 -10.53125 L 14.359375 -7.78125 L 5.453125 -7.78125 L 5.453125 -2.75 L 15.703125 -2.75 L 15.703125 0 L 2.390625 0 L 2.390625 -18.203125 L 15.390625 -18.203125 Z M 15.390625 -15.4375 "/></g></g></g><g fill="#000000" fill-opacity="1"><g transform="translate(223.777927, 539.850689)"><g><path d="M 13.9375 0 L 10.609375 -5.515625 C 10.429688 -5.492188 10.15625 -5.484375 9.78125 -5.484375 L 5.453125 -5.484375 L 5.453125 0 L 2.390625 0 L 2.390625 -18.203125 L 9.78125 -18.203125 C 12.101562 -18.203125 13.90625 -17.660156 15.1875 -16.578125 C 16.46875 -15.492188 17.109375 -13.960938 17.109375 -11.984375 C 17.109375 -10.523438 16.78125 -9.289062 16.125 -8.28125 C 15.476562 -7.28125 14.550781 -6.546875 13.34375 -6.078125 L 17.421875 0 Z M 5.453125 -8.234375 L 9.78125 -8.234375 C 12.726562 -8.234375 14.203125 -9.457031 14.203125 -11.90625 C 14.203125 -14.257812 12.726562 -15.4375 9.78125 -15.4375 L 5.453125 -15.4375 Z M 5.453125 -8.234375 "/></g></g></g><g fill="#000000" fill-opacity="1"><g transform="translate(250.370253, 539.850689)"><g><path d="M 2.390625 -18.203125 L 9.859375 -18.203125 C 12.578125 -18.203125 14.820312 -17.34375 16.59375 -15.625 C 18.375 -13.90625 19.265625 -11.726562 19.265625 -9.09375 C 19.265625 -6.457031 18.367188 -4.28125 16.578125 -2.5625 C 14.796875 -0.851562 12.53125 0 9.78125 0 L 2.390625 0 Z M 5.453125 -15.4375 L 5.453125 -2.75 L 9.9375 -2.75 C 11.71875 -2.75 13.203125 -3.34375 14.390625 -4.53125 C 15.578125 -5.71875 16.171875 -7.226562 16.171875 -9.0625 C 16.171875 -10.90625 15.554688 -12.425781 14.328125 -13.625 C 13.109375 -14.832031 11.597656 -15.4375 9.796875 -15.4375 Z M 5.453125 -15.4375 "/></g></g></g><g fill="#000000" fill-opacity="1"><g transform="translate(278.314183, 539.850689)"><g><path d="M 5.453125 0 L 2.390625 0 L 2.390625 -18.203125 L 5.453125 -18.203125 Z M 5.453125 0 "/></g></g></g><g fill="#000000" fill-opacity="1"><g transform="translate(293.963795, 539.850689)"><g><path d="M 2.390625 -18.203125 L 9.859375 -18.203125 C 12.578125 -18.203125 14.820312 -17.34375 16.59375 -15.625 C 18.375 -13.90625 19.265625 -11.726562 19.265625 -9.09375 C 19.265625 -6.457031 18.367188 -4.28125 16.578125 -2.5625 C 14.796875 -0.851562 12.53125 0 9.78125 0 L 2.390625 0 Z M 5.453125 -15.4375 L 5.453125 -2.75 L 9.9375 -2.75 C 11.71875 -2.75 13.203125 -3.34375 14.390625 -4.53125 C 15.578125 -5.71875 16.171875 -7.226562 16.171875 -9.0625 C 16.171875 -10.90625 15.554688 -12.425781 14.328125 -13.625 C 13.109375 -14.832031 11.597656 -15.4375 9.796875 -15.4375 Z M 5.453125 -15.4375 "/></g></g></g><g fill="#000000" fill-opacity="1"><g transform="translate(321.907724, 539.850689)"><g><path d="M 3.671875 -15.640625 C 5.523438 -17.398438 7.8125 -18.28125 10.53125 -18.28125 C 13.25 -18.28125 15.535156 -17.398438 17.390625 -15.640625 C 19.242188 -13.878906 20.171875 -11.695312 20.171875 -9.09375 C 20.171875 -6.5 19.242188 -4.3125 17.390625 -2.53125 C 15.535156 -0.757812 13.25 0.125 10.53125 0.125 C 7.8125 0.125 5.523438 -0.757812 3.671875 -2.53125 C 1.816406 -4.3125 0.890625 -6.5 0.890625 -9.09375 C 0.890625 -11.695312 1.816406 -13.878906 3.671875 -15.640625 Z M 10.5625 -15.515625 C 8.757812 -15.515625 7.210938 -14.894531 5.921875 -13.65625 C 4.640625 -12.414062 4 -10.894531 4 -9.09375 C 4 -7.289062 4.644531 -5.757812 5.9375 -4.5 C 7.226562 -3.25 8.765625 -2.625 10.546875 -2.625 C 12.335938 -2.625 13.863281 -3.25 15.125 -4.5 C 16.394531 -5.757812 17.03125 -7.289062 17.03125 -9.09375 C 17.03125 -10.894531 16.394531 -12.414062 15.125 -13.65625 C 13.863281 -14.894531 12.34375 -15.515625 10.5625 -15.515625 Z M 10.5625 -15.515625 "/></g></g></g><g fill="#000000" fill-opacity="1"><g transform="translate(350.76138, 539.850689)"><g/></g></g><g fill="#000000" fill-opacity="1"><g transform="translate(365.267326, 539.850689)"><g><path d="M 14.59375 -15.4375 L 5.453125 -15.4375 L 5.453125 -10.1875 L 13.734375 -10.1875 L 13.734375 -7.46875 L 5.453125 -7.46875 L 5.453125 0 L 2.390625 0 L 2.390625 -18.203125 L 14.609375 -18.203125 Z M 14.59375 -15.4375 "/></g></g></g><g fill="#000000" fill-opacity="1"><g transform="translate(388.012824, 539.850689)"><g><path d="M 13.9375 0 L 10.609375 -5.515625 C 10.429688 -5.492188 10.15625 -5.484375 9.78125 -5.484375 L 5.453125 -5.484375 L 5.453125 0 L 2.390625 0 L 2.390625 -18.203125 L 9.78125 -18.203125 C 12.101562 -18.203125 13.90625 -17.660156 15.1875 -16.578125 C 16.46875 -15.492188 17.109375 -13.960938 17.109375 -11.984375 C 17.109375 -10.523438 16.78125 -9.289062 16.125 -8.28125 C 15.476562 -7.28125 14.550781 -6.546875 13.34375 -6.078125 L 17.421875 0 Z M 5.453125 -8.234375 L 9.78125 -8.234375 C 12.726562 -8.234375 14.203125 -9.457031 14.203125 -11.90625 C 14.203125 -14.257812 12.726562 -15.4375 9.78125 -15.4375 L 5.453125 -15.4375 Z M 5.453125 -8.234375 "/></g></g></g><g fill="#000000" fill-opacity="1"><g transform="translate(414.605161, 539.850689)"><g><path d="M 15.390625 -15.4375 L 5.453125 -15.4375 L 5.453125 -10.53125 L 14.359375 -10.53125 L 14.359375 -7.78125 L 5.453125 -7.78125 L 5.453125 -2.75 L 15.703125 -2.75 L 15.703125 0 L 2.390625 0 L 2.390625 -18.203125 L 15.390625 -18.203125 Z M 15.390625 -15.4375 "/></g></g></g><g fill="#000000" fill-opacity="1"><g transform="translate(439.456005, 539.850689)"><g><path d="M 18.171875 0 L 15.15625 0 L 5.453125 -13.046875 L 5.453125 0 L 2.390625 0 L 2.390625 -18.203125 L 5.40625 -18.203125 L 15.15625 -5.125 L 15.15625 -18.203125 L 18.171875 -18.203125 Z M 18.171875 0 "/></g></g></g><g fill="#000000" fill-opacity="1"><g transform="translate(467.841791, 539.850689)"><g><path d="M 14.8125 -15.4375 L 9.046875 -15.4375 L 9.046875 0 L 5.984375 0 L 5.984375 -15.4375 L 0.234375 -15.4375 L 0.234375 -18.203125 L 14.8125 -18.203125 Z M 14.8125 -15.4375 "/></g></g></g><g fill="#000000" fill-opacity="1"><g transform="translate(490.691246, 539.850689)"><g><path d="M 15.390625 -15.4375 L 5.453125 -15.4375 L 5.453125 -10.53125 L 14.359375 -10.53125 L 14.359375 -7.78125 L 5.453125 -7.78125 L 5.453125 -2.75 L 15.703125 -2.75 L 15.703125 0 L 2.390625 0 L 2.390625 -18.203125 L 15.390625 -18.203125 Z M 15.390625 -15.4375 "/></g></g></g><g fill="#000000" fill-opacity="1"><g transform="translate(515.54209, 539.850689)"><g/></g></g><g fill="#000000" fill-opacity="1"><g transform="translate(530.048048, 539.850689)"><g><path d="M 14.140625 -4.109375 L 4.96875 -4.109375 L 3.21875 0 L 0.03125 0 L 8.0625 -18.203125 L 11.203125 -18.203125 L 19.15625 0 L 15.890625 0 Z M 12.96875 -6.84375 L 9.546875 -14.921875 L 6.109375 -6.84375 Z M 12.96875 -6.84375 "/></g></g></g><g fill="#000000" fill-opacity="1"><g transform="translate(557.030262, 539.850689)"><g/></g></g><g fill="#000000" fill-opacity="1"><g transform="translate(571.536198, 539.850689)"><g><path d="M 5.453125 -2.78125 L 13.34375 -2.78125 L 13.34375 0 L 2.390625 0 L 2.390625 -18.203125 L 5.453125 -18.203125 Z M 5.453125 -2.78125 "/></g></g></g><g fill="#000000" fill-opacity="1"><g transform="translate(593.216021, 539.850689)"><g><path d="M 14.140625 -4.109375 L 4.96875 -4.109375 L 3.21875 0 L 0.03125 0 L 8.0625 -18.203125 L 11.203125 -18.203125 L 19.15625 0 L 15.890625 0 Z M 12.96875 -6.84375 L 9.546875 -14.921875 L 6.109375 -6.84375 Z M 12.96875 -6.84375 "/></g></g></g><g fill="#000000" fill-opacity="1"><g transform="translate(620.198258, 539.850689)"><g><path d="M 8.375 -18.328125 C 10.726562 -18.328125 12.847656 -17.703125 14.734375 -16.453125 L 13.46875 -13.75 C 11.613281 -14.875 9.835938 -15.4375 8.140625 -15.4375 C 7.222656 -15.4375 6.5 -15.269531 5.96875 -14.9375 C 5.4375 -14.613281 5.171875 -14.148438 5.171875 -13.546875 C 5.171875 -12.941406 5.410156 -12.425781 5.890625 -12 C 6.378906 -11.570312 6.988281 -11.257812 7.71875 -11.0625 C 8.445312 -10.863281 9.234375 -10.613281 10.078125 -10.3125 C 10.929688 -10.007812 11.722656 -9.6875 12.453125 -9.34375 C 13.179688 -9.007812 13.78125 -8.484375 14.25 -7.765625 C 14.726562 -7.046875 14.96875 -6.171875 14.96875 -5.140625 C 14.96875 -3.546875 14.332031 -2.269531 13.0625 -1.3125 C 11.789062 -0.363281 10.140625 0.109375 8.109375 0.109375 C 6.722656 0.109375 5.378906 -0.148438 4.078125 -0.671875 C 2.773438 -1.191406 1.640625 -1.894531 0.671875 -2.78125 L 2 -5.4375 C 2.914062 -4.582031 3.925781 -3.925781 5.03125 -3.46875 C 6.132812 -3.007812 7.175781 -2.78125 8.15625 -2.78125 C 9.238281 -2.78125 10.078125 -2.972656 10.671875 -3.359375 C 11.265625 -3.753906 11.5625 -4.296875 11.5625 -4.984375 C 11.5625 -5.609375 11.316406 -6.132812 10.828125 -6.5625 C 10.347656 -6.988281 9.742188 -7.300781 9.015625 -7.5 C 8.296875 -7.695312 7.507812 -7.9375 6.65625 -8.21875 C 5.800781 -8.507812 5.007812 -8.816406 4.28125 -9.140625 C 3.5625 -9.460938 2.957031 -9.976562 2.46875 -10.6875 C 1.976562 -11.394531 1.734375 -12.253906 1.734375 -13.265625 C 1.734375 -14.804688 2.335938 -16.035156 3.546875 -16.953125 C 4.765625 -17.867188 6.375 -18.328125 8.375 -18.328125 Z M 8.375 -18.328125 "/></g></g></g><g fill="#000000" fill-opacity="1"><g transform="translate(193.896066, 576.600687)"><g><path d="M 5.453125 0 L 2.390625 0 L 2.390625 -18.203125 L 5.453125 -18.203125 Z M 5.453125 0 "/></g></g></g><g fill="#000000" fill-opacity="1"><g transform="translate(209.545679, 576.600687)"><g><path d="M 18.171875 0 L 15.15625 0 L 5.453125 -13.046875 L 5.453125 0 L 2.390625 0 L 2.390625 -18.203125 L 5.40625 -18.203125 L 15.15625 -5.125 L 15.15625 -18.203125 L 18.171875 -18.203125 Z M 18.171875 0 "/></g></g></g><g fill="#000000" fill-opacity="1"><g transform="translate(237.931477, 576.600687)"><g><path d="M 14.59375 -15.4375 L 5.453125 -15.4375 L 5.453125 -10.1875 L 13.734375 -10.1875 L 13.734375 -7.46875 L 5.453125 -7.46875 L 5.453125 0 L 2.390625 0 L 2.390625 -18.203125 L 14.609375 -18.203125 Z M 14.59375 -15.4375 "/></g></g></g><g fill="#000000" fill-opacity="1"><g transform="translate(260.676963, 576.600687)"><g><path d="M 5.453125 0 L 2.390625 0 L 2.390625 -18.203125 L 5.453125 -18.203125 Z M 5.453125 0 "/></g></g></g><g fill="#000000" fill-opacity="1"><g transform="translate(276.326575, 576.600687)"><g><path d="M 18.171875 0 L 15.15625 0 L 5.453125 -13.046875 L 5.453125 0 L 2.390625 0 L 2.390625 -18.203125 L 5.40625 -18.203125 L 15.15625 -5.125 L 15.15625 -18.203125 L 18.171875 -18.203125 Z M 18.171875 0 "/></g></g></g><g fill="#000000" fill-opacity="1"><g transform="translate(304.712373, 576.600687)"><g><path d="M 5.453125 0 L 2.390625 0 L 2.390625 -18.203125 L 5.453125 -18.203125 Z M 5.453125 0 "/></g></g></g><g fill="#000000" fill-opacity="1"><g transform="translate(320.361985, 576.600687)"><g><path d="M 14.8125 -15.4375 L 9.046875 -15.4375 L 9.046875 0 L 5.984375 0 L 5.984375 -15.4375 L 0.234375 -15.4375 L 0.234375 -18.203125 L 14.8125 -18.203125 Z M 14.8125 -15.4375 "/></g></g></g><g fill="#000000" fill-opacity="1"><g transform="translate(343.21144, 576.600687)"><g><path d="M 14.140625 -4.109375 L 4.96875 -4.109375 L 3.21875 0 L 0.03125 0 L 8.0625 -18.203125 L 11.203125 -18.203125 L 19.15625 0 L 15.890625 0 Z M 12.96875 -6.84375 L 9.546875 -14.921875 L 6.109375 -6.84375 Z M 12.96875 -6.84375 "/></g></g></g><g fill="#000000" fill-opacity="1"><g transform="translate(370.193655, 576.600687)"><g><path d="M 8.375 -18.328125 C 10.726562 -18.328125 12.847656 -17.703125 14.734375 -16.453125 L 13.46875 -13.75 C 11.613281 -14.875 9.835938 -15.4375 8.140625 -15.4375 C 7.222656 -15.4375 6.5 -15.269531 5.96875 -14.9375 C 5.4375 -14.613281 5.171875 -14.148438 5.171875 -13.546875 C 5.171875 -12.941406 5.410156 -12.425781 5.890625 -12 C 6.378906 -11.570312 6.988281 -11.257812 7.71875 -11.0625 C 8.445312 -10.863281 9.234375 -10.613281 10.078125 -10.3125 C 10.929688 -10.007812 11.722656 -9.6875 12.453125 -9.34375 C 13.179688 -9.007812 13.78125 -8.484375 14.25 -7.765625 C 14.726562 -7.046875 14.96875 -6.171875 14.96875 -5.140625 C 14.96875 -3.546875 14.332031 -2.269531 13.0625 -1.3125 C 11.789062 -0.363281 10.140625 0.109375 8.109375 0.109375 C 6.722656 0.109375 5.378906 -0.148438 4.078125 -0.671875 C 2.773438 -1.191406 1.640625 -1.894531 0.671875 -2.78125 L 2 -5.4375 C 2.914062 -4.582031 3.925781 -3.925781 5.03125 -3.46875 C 6.132812 -3.007812 7.175781 -2.78125 8.15625 -2.78125 C 9.238281 -2.78125 10.078125 -2.972656 10.671875 -3.359375 C 11.265625 -3.753906 11.5625 -4.296875 11.5625 -4.984375 C 11.5625 -5.609375 11.316406 -6.132812 10.828125 -6.5625 C 10.347656 -6.988281 9.742188 -7.300781 9.015625 -7.5 C 8.296875 -7.695312 7.507812 -7.9375 6.65625 -8.21875 C 5.800781 -8.507812 5.007812 -8.816406 4.28125 -9.140625 C 3.5625 -9.460938 2.957031 -9.976562 2.46875 -10.6875 C 1.976562 -11.394531 1.734375 -12.253906 1.734375 -13.265625 C 1.734375 -14.804688 2.335938 -16.035156 3.546875 -16.953125 C 4.765625 -17.867188 6.375 -18.328125 8.375 -18.328125 Z M 8.375 -18.328125 "/></g></g></g><g fill="#000000" fill-opacity="1"><g transform="translate(394.160775, 576.600687)"><g/></g></g><g fill="#000000" fill-opacity="1"><g transform="translate(408.666732, 576.600687)"><g><path d="M 3.671875 -15.640625 C 5.523438 -17.398438 7.8125 -18.28125 10.53125 -18.28125 C 13.25 -18.28125 15.535156 -17.398438 17.390625 -15.640625 C 19.242188 -13.878906 20.171875 -11.695312 20.171875 -9.09375 C 20.171875 -6.5 19.242188 -4.3125 17.390625 -2.53125 C 15.535156 -0.757812 13.25 0.125 10.53125 0.125 C 7.8125 0.125 5.523438 -0.757812 3.671875 -2.53125 C 1.816406 -4.3125 0.890625 -6.5 0.890625 -9.09375 C 0.890625 -11.695312 1.816406 -13.878906 3.671875 -15.640625 Z M 10.5625 -15.515625 C 8.757812 -15.515625 7.210938 -14.894531 5.921875 -13.65625 C 4.640625 -12.414062 4 -10.894531 4 -9.09375 C 4 -7.289062 4.644531 -5.757812 5.9375 -4.5 C 7.226562 -3.25 8.765625 -2.625 10.546875 -2.625 C 12.335938 -2.625 13.863281 -3.25 15.125 -4.5 C 16.394531 -5.757812 17.03125 -7.289062 17.03125 -9.09375 C 17.03125 -10.894531 16.394531 -12.414062 15.125 -13.65625 C 13.863281 -14.894531 12.34375 -15.515625 10.5625 -15.515625 Z M 10.5625 -15.515625 "/></g></g></g><g fill="#000000" fill-opacity="1"><g transform="translate(437.520399, 576.600687)"><g><path d="M 2.390625 -18.203125 L 9.640625 -18.203125 C 11.929688 -18.203125 13.703125 -17.660156 14.953125 -16.578125 C 16.210938 -15.492188 16.84375 -13.960938 16.84375 -11.984375 C 16.84375 -9.921875 16.210938 -8.320312 14.953125 -7.1875 C 13.703125 -6.050781 11.929688 -5.484375 9.640625 -5.484375 L 5.453125 -5.484375 L 5.453125 0 L 2.390625 0 Z M 5.453125 -15.4375 L 5.453125 -8.234375 L 9.515625 -8.234375 C 12.441406 -8.234375 13.90625 -9.457031 13.90625 -11.90625 C 13.90625 -14.257812 12.441406 -15.4375 9.515625 -15.4375 Z M 5.453125 -15.4375 "/></g></g></g><g fill="#000000" fill-opacity="1"><g transform="translate(462.813123, 576.600687)"><g><path d="M 10.453125 -18.28125 C 11.734375 -18.28125 12.984375 -18.03125 14.203125 -17.53125 C 15.429688 -17.039062 16.488281 -16.351562 17.375 -15.46875 L 15.578125 -13.234375 C 14.921875 -13.941406 14.140625 -14.503906 13.234375 -14.921875 C 12.328125 -15.335938 11.414062 -15.546875 10.5 -15.546875 C 8.6875 -15.546875 7.148438 -14.925781 5.890625 -13.6875 C 4.628906 -12.445312 4 -10.9375 4 -9.15625 C 4 -7.351562 4.628906 -5.832031 5.890625 -4.59375 C 7.148438 -3.351562 8.6875 -2.734375 10.5 -2.734375 C 12.394531 -2.734375 14.085938 -3.453125 15.578125 -4.890625 L 17.390625 -2.859375 C 16.453125 -1.941406 15.359375 -1.210938 14.109375 -0.671875 C 12.867188 -0.140625 11.613281 0.125 10.34375 0.125 C 7.675781 0.125 5.429688 -0.757812 3.609375 -2.53125 C 1.796875 -4.3125 0.890625 -6.507812 0.890625 -9.125 C 0.890625 -11.707031 1.8125 -13.878906 3.65625 -15.640625 C 5.5 -17.398438 7.765625 -18.28125 10.453125 -18.28125 Z M 10.453125 -18.28125 "/></g></g></g><g fill="#000000" fill-opacity="1"><g transform="translate(488.729641, 576.600687)"><g><path d="M 5.453125 0 L 2.390625 0 L 2.390625 -18.203125 L 5.453125 -18.203125 Z M 5.453125 0 "/></g></g></g><g fill="#000000" fill-opacity="1"><g transform="translate(504.379253, 576.600687)"><g><path d="M 3.671875 -15.640625 C 5.523438 -17.398438 7.8125 -18.28125 10.53125 -18.28125 C 13.25 -18.28125 15.535156 -17.398438 17.390625 -15.640625 C 19.242188 -13.878906 20.171875 -11.695312 20.171875 -9.09375 C 20.171875 -6.5 19.242188 -4.3125 17.390625 -2.53125 C 15.535156 -0.757812 13.25 0.125 10.53125 0.125 C 7.8125 0.125 5.523438 -0.757812 3.671875 -2.53125 C 1.816406 -4.3125 0.890625 -6.5 0.890625 -9.09375 C 0.890625 -11.695312 1.816406 -13.878906 3.671875 -15.640625 Z M 10.5625 -15.515625 C 8.757812 -15.515625 7.210938 -14.894531 5.921875 -13.65625 C 4.640625 -12.414062 4 -10.894531 4 -9.09375 C 4 -7.289062 4.644531 -5.757812 5.9375 -4.5 C 7.226562 -3.25 8.765625 -2.625 10.546875 -2.625 C 12.335938 -2.625 13.863281 -3.25 15.125 -4.5 C 16.394531 -5.757812 17.03125 -7.289062 17.03125 -9.09375 C 17.03125 -10.894531 16.394531 -12.414062 15.125 -13.65625 C 13.863281 -14.894531 12.34375 -15.515625 10.5625 -15.515625 Z M 10.5625 -15.515625 "/></g></g></g><g fill="#000000" fill-opacity="1"><g transform="translate(533.23292, 576.600687)"><g><path d="M 18.171875 0 L 15.15625 0 L 5.453125 -13.046875 L 5.453125 0 L 2.390625 0 L 2.390625 -18.203125 L 5.40625 -18.203125 L 15.15625 -5.125 L 15.15625 -18.203125 L 18.171875 -18.203125 Z M 18.171875 0 "/></g></g></g><g fill="#000000" fill-opacity="1"><g transform="translate(561.618706, 576.600687)"><g><path d="M 15.390625 -15.4375 L 5.453125 -15.4375 L 5.453125 -10.53125 L 14.359375 -10.53125 L 14.359375 -7.78125 L 5.453125 -7.78125 L 5.453125 -2.75 L 15.703125 -2.75 L 15.703125 0 L 2.390625 0 L 2.390625 -18.203125 L 15.390625 -18.203125 Z M 15.390625 -15.4375 "/></g></g></g><g fill="#000000" fill-opacity="1"><g transform="translate(586.46955, 576.600687)"><g><path d="M 8.375 -18.328125 C 10.726562 -18.328125 12.847656 -17.703125 14.734375 -16.453125 L 13.46875 -13.75 C 11.613281 -14.875 9.835938 -15.4375 8.140625 -15.4375 C 7.222656 -15.4375 6.5 -15.269531 5.96875 -14.9375 C 5.4375 -14.613281 5.171875 -14.148438 5.171875 -13.546875 C 5.171875 -12.941406 5.410156 -12.425781 5.890625 -12 C 6.378906 -11.570312 6.988281 -11.257812 7.71875 -11.0625 C 8.445312 -10.863281 9.234375 -10.613281 10.078125 -10.3125 C 10.929688 -10.007812 11.722656 -9.6875 12.453125 -9.34375 C 13.179688 -9.007812 13.78125 -8.484375 14.25 -7.765625 C 14.726562 -7.046875 14.96875 -6.171875 14.96875 -5.140625 C 14.96875 -3.546875 14.332031 -2.269531 13.0625 -1.3125 C 11.789062 -0.363281 10.140625 0.109375 8.109375 0.109375 C 6.722656 0.109375 5.378906 -0.148438 4.078125 -0.671875 C 2.773438 -1.191406 1.640625 -1.894531 0.671875 -2.78125 L 2 -5.4375 C 2.914062 -4.582031 3.925781 -3.925781 5.03125 -3.46875 C 6.132812 -3.007812 7.175781 -2.78125 8.15625 -2.78125 C 9.238281 -2.78125 10.078125 -2.972656 10.671875 -3.359375 C 11.265625 -3.753906 11.5625 -4.296875 11.5625 -4.984375 C 11.5625 -5.609375 11.316406 -6.132812 10.828125 -6.5625 C 10.347656 -6.988281 9.742188 -7.300781 9.015625 -7.5 C 8.296875 -7.695312 7.507812 -7.9375 6.65625 -8.21875 C 5.800781 -8.507812 5.007812 -8.816406 4.28125 -9.140625 C 3.5625 -9.460938 2.957031 -9.976562 2.46875 -10.6875 C 1.976562 -11.394531 1.734375 -12.253906 1.734375 -13.265625 C 1.734375 -14.804688 2.335938 -16.035156 3.546875 -16.953125 C 4.765625 -17.867188 6.375 -18.328125 8.375 -18.328125 Z M 8.375 -18.328125 "/></g></g></g><g fill="#000000" fill-opacity="1"><g transform="translate(610.436681, 576.600687)"><g><path d="M 1.65625 -2.71875 C 1.96875 -3.039062 2.359375 -3.203125 2.828125 -3.203125 C 3.296875 -3.203125 3.6875 -3.039062 4 -2.71875 C 4.3125 -2.394531 4.46875 -1.992188 4.46875 -1.515625 C 4.46875 -1.003906 4.3125 -0.582031 4 -0.25 C 3.6875 0.0703125 3.296875 0.234375 2.828125 0.234375 C 2.359375 0.234375 1.96875 0.0703125 1.65625 -0.25 C 1.351562 -0.582031 1.203125 -1.003906 1.203125 -1.515625 C 1.203125 -1.992188 1.351562 -2.394531 1.65625 -2.71875 Z M 1.65625 -2.71875 "/></g></g></g><g fill="#000000" fill-opacity="1"><g transform="translate(93.185133, 613.350685)"><g><path d="M 4.21875 -11.078125 C 3.90625 -10.765625 3.515625 -10.609375 3.046875 -10.609375 C 2.578125 -10.609375 2.1875 -10.765625 1.875 -11.078125 C 1.5625 -11.398438 1.40625 -11.804688 1.40625 -12.296875 C 1.40625 -12.796875 1.5625 -13.210938 1.875 -13.546875 C 2.1875 -13.878906 2.578125 -14.046875 3.046875 -14.046875 C 3.515625 -14.046875 3.90625 -13.878906 4.21875 -13.546875 C 4.53125 -13.210938 4.6875 -12.796875 4.6875 -12.296875 C 4.6875 -11.804688 4.53125 -11.398438 4.21875 -11.078125 Z M 1.640625 -0.34375 L 2.109375 -8.015625 L 4 -8.015625 L 4.46875 -0.34375 L 4.46875 4.15625 L 1.640625 4.15625 Z M 1.640625 -0.34375 "/></g></g></g><g fill="#000000" fill-opacity="1"><g transform="translate(106.417468, 613.350685)"><g><path d="M 13.9375 0 L 10.609375 -5.515625 C 10.429688 -5.492188 10.15625 -5.484375 9.78125 -5.484375 L 5.453125 -5.484375 L 5.453125 0 L 2.390625 0 L 2.390625 -18.203125 L 9.78125 -18.203125 C 12.101562 -18.203125 13.90625 -17.660156 15.1875 -16.578125 C 16.46875 -15.492188 17.109375 -13.960938 17.109375 -11.984375 C 17.109375 -10.523438 16.78125 -9.289062 16.125 -8.28125 C 15.476562 -7.28125 14.550781 -6.546875 13.34375 -6.078125 L 17.421875 0 Z M 5.453125 -8.234375 L 9.78125 -8.234375 C 12.726562 -8.234375 14.203125 -9.457031 14.203125 -11.90625 C 14.203125 -14.257812 12.726562 -15.4375 9.78125 -15.4375 L 5.453125 -15.4375 Z M 5.453125 -8.234375 "/></g></g></g><g fill="#000000" fill-opacity="1"><g transform="translate(133.009794, 613.350685)"><g><path d="M 15.390625 -15.4375 L 5.453125 -15.4375 L 5.453125 -10.53125 L 14.359375 -10.53125 L 14.359375 -7.78125 L 5.453125 -7.78125 L 5.453125 -2.75 L 15.703125 -2.75 L 15.703125 0 L 2.390625 0 L 2.390625 -18.203125 L 15.390625 -18.203125 Z M 15.390625 -15.4375 "/></g></g></g><g fill="#000000" fill-opacity="1"><g transform="translate(157.86065, 613.350685)"><g><path d="M 14.84375 -8.9375 L 17.53125 -8.9375 L 17.53125 -2.234375 C 16.59375 -1.523438 15.484375 -0.953125 14.203125 -0.515625 C 12.929688 -0.0859375 11.679688 0.125 10.453125 0.125 C 7.765625 0.125 5.5 -0.757812 3.65625 -2.53125 C 1.8125 -4.3125 0.890625 -6.5 0.890625 -9.09375 C 0.890625 -11.695312 1.820312 -13.878906 3.6875 -15.640625 C 5.5625 -17.398438 7.878906 -18.28125 10.640625 -18.28125 C 11.921875 -18.28125 13.179688 -18.050781 14.421875 -17.59375 C 15.660156 -17.132812 16.726562 -16.515625 17.625 -15.734375 L 15.890625 -13.46875 C 14.398438 -14.851562 12.648438 -15.546875 10.640625 -15.546875 C 8.785156 -15.546875 7.210938 -14.921875 5.921875 -13.671875 C 4.640625 -12.421875 4 -10.894531 4 -9.09375 C 4 -7.28125 4.644531 -5.75 5.9375 -4.5 C 7.226562 -3.25 8.800781 -2.625 10.65625 -2.625 C 12.0625 -2.625 13.457031 -3.039062 14.84375 -3.875 Z M 14.84375 -8.9375 "/></g></g></g><g fill="#000000" fill-opacity="1"><g transform="translate(185.128783, 613.350685)"><g><path d="M 8.015625 -22.71875 L 4.84375 -20.171875 L 2.1875 -20.171875 L 4.9375 -24.03125 Z M 5.453125 0 L 2.390625 0 L 2.390625 -18.203125 L 5.453125 -18.203125 Z M 5.453125 0 "/></g></g></g><g fill="#000000" fill-opacity="1"><g transform="translate(200.778395, 613.350685)"><g><path d="M 8.375 -18.328125 C 10.726562 -18.328125 12.847656 -17.703125 14.734375 -16.453125 L 13.46875 -13.75 C 11.613281 -14.875 9.835938 -15.4375 8.140625 -15.4375 C 7.222656 -15.4375 6.5 -15.269531 5.96875 -14.9375 C 5.4375 -14.613281 5.171875 -14.148438 5.171875 -13.546875 C 5.171875 -12.941406 5.410156 -12.425781 5.890625 -12 C 6.378906 -11.570312 6.988281 -11.257812 7.71875 -11.0625 C 8.445312 -10.863281 9.234375 -10.613281 10.078125 -10.3125 C 10.929688 -10.007812 11.722656 -9.6875 12.453125 -9.34375 C 13.179688 -9.007812 13.78125 -8.484375 14.25 -7.765625 C 14.726562 -7.046875 14.96875 -6.171875 14.96875 -5.140625 C 14.96875 -3.546875 14.332031 -2.269531 13.0625 -1.3125 C 11.789062 -0.363281 10.140625 0.109375 8.109375 0.109375 C 6.722656 0.109375 5.378906 -0.148438 4.078125 -0.671875 C 2.773438 -1.191406 1.640625 -1.894531 0.671875 -2.78125 L 2 -5.4375 C 2.914062 -4.582031 3.925781 -3.925781 5.03125 -3.46875 C 6.132812 -3.007812 7.175781 -2.78125 8.15625 -2.78125 C 9.238281 -2.78125 10.078125 -2.972656 10.671875 -3.359375 C 11.265625 -3.753906 11.5625 -4.296875 11.5625 -4.984375 C 11.5625 -5.609375 11.316406 -6.132812 10.828125 -6.5625 C 10.347656 -6.988281 9.742188 -7.300781 9.015625 -7.5 C 8.296875 -7.695312 7.507812 -7.9375 6.65625 -8.21875 C 5.800781 -8.507812 5.007812 -8.816406 4.28125 -9.140625 C 3.5625 -9.460938 2.957031 -9.976562 2.46875 -10.6875 C 1.976562 -11.394531 1.734375 -12.253906 1.734375 -13.265625 C 1.734375 -14.804688 2.335938 -16.035156 3.546875 -16.953125 C 4.765625 -17.867188 6.375 -18.328125 8.375 -18.328125 Z M 8.375 -18.328125 "/></g></g></g><g fill="#000000" fill-opacity="1"><g transform="translate(224.745514, 613.350685)"><g><path d="M 14.8125 -15.4375 L 9.046875 -15.4375 L 9.046875 0 L 5.984375 0 L 5.984375 -15.4375 L 0.234375 -15.4375 L 0.234375 -18.203125 L 14.8125 -18.203125 Z M 14.8125 -15.4375 "/></g></g></g><g fill="#000000" fill-opacity="1"><g transform="translate(247.59497, 613.350685)"><g><path d="M 13.9375 0 L 10.609375 -5.515625 C 10.429688 -5.492188 10.15625 -5.484375 9.78125 -5.484375 L 5.453125 -5.484375 L 5.453125 0 L 2.390625 0 L 2.390625 -18.203125 L 9.78125 -18.203125 C 12.101562 -18.203125 13.90625 -17.660156 15.1875 -16.578125 C 16.46875 -15.492188 17.109375 -13.960938 17.109375 -11.984375 C 17.109375 -10.523438 16.78125 -9.289062 16.125 -8.28125 C 15.476562 -7.28125 14.550781 -6.546875 13.34375 -6.078125 L 17.421875 0 Z M 5.453125 -8.234375 L 9.78125 -8.234375 C 12.726562 -8.234375 14.203125 -9.457031 14.203125 -11.90625 C 14.203125 -14.257812 12.726562 -15.4375 9.78125 -15.4375 L 5.453125 -15.4375 Z M 5.453125 -8.234375 "/></g></g></g><g fill="#000000" fill-opacity="1"><g transform="translate(274.187295, 613.350685)"><g><path d="M 14.140625 -4.109375 L 4.96875 -4.109375 L 3.21875 0 L 0.03125 0 L 8.0625 -18.203125 L 11.203125 -18.203125 L 19.15625 0 L 15.890625 0 Z M 12.96875 -6.84375 L 9.546875 -14.921875 L 6.109375 -6.84375 Z M 12.96875 -6.84375 "/></g></g></g><g fill="#000000" fill-opacity="1"><g transform="translate(301.169499, 613.350685)"><g><path d="M 14.8125 -15.4375 L 9.046875 -15.4375 L 9.046875 0 L 5.984375 0 L 5.984375 -15.4375 L 0.234375 -15.4375 L 0.234375 -18.203125 L 14.8125 -18.203125 Z M 14.8125 -15.4375 "/></g></g></g><g fill="#000000" fill-opacity="1"><g transform="translate(324.018954, 613.350685)"><g><path d="M 15.390625 -15.4375 L 5.453125 -15.4375 L 5.453125 -10.53125 L 14.359375 -10.53125 L 14.359375 -7.78125 L 5.453125 -7.78125 L 5.453125 -2.75 L 15.703125 -2.75 L 15.703125 0 L 2.390625 0 L 2.390625 -18.203125 L 15.390625 -18.203125 Z M 15.390625 -15.4375 "/></g></g></g><g fill="#000000" fill-opacity="1"><g transform="translate(348.869798, 613.350685)"><g/></g></g><g fill="#000000" fill-opacity="1"><g transform="translate(363.375756, 613.350685)"><g><path d="M 14.140625 -4.109375 L 4.96875 -4.109375 L 3.21875 0 L 0.03125 0 L 8.0625 -18.203125 L 11.203125 -18.203125 L 19.15625 0 L 15.890625 0 Z M 12.96875 -6.84375 L 9.546875 -14.921875 L 6.109375 -6.84375 Z M 12.96875 -6.84375 "/></g></g></g><g fill="#000000" fill-opacity="1"><g transform="translate(390.35797, 613.350685)"><g><path d="M 18.171875 0 L 15.109375 0 L 15.109375 -7.546875 L 5.453125 -7.546875 L 5.453125 0 L 2.390625 0 L 2.390625 -18.203125 L 5.453125 -18.203125 L 5.453125 -10.296875 L 15.109375 -10.296875 L 15.109375 -18.203125 L 18.171875 -18.203125 Z M 18.171875 0 "/></g></g></g><g fill="#000000" fill-opacity="1"><g transform="translate(418.717756, 613.350685)"><g><path d="M 3.671875 -15.640625 C 5.523438 -17.398438 7.8125 -18.28125 10.53125 -18.28125 C 13.25 -18.28125 15.535156 -17.398438 17.390625 -15.640625 C 19.242188 -13.878906 20.171875 -11.695312 20.171875 -9.09375 C 20.171875 -6.5 19.242188 -4.3125 17.390625 -2.53125 C 15.535156 -0.757812 13.25 0.125 10.53125 0.125 C 7.8125 0.125 5.523438 -0.757812 3.671875 -2.53125 C 1.816406 -4.3125 0.890625 -6.5 0.890625 -9.09375 C 0.890625 -11.695312 1.816406 -13.878906 3.671875 -15.640625 Z M 10.5625 -15.515625 C 8.757812 -15.515625 7.210938 -14.894531 5.921875 -13.65625 C 4.640625 -12.414062 4 -10.894531 4 -9.09375 C 4 -7.289062 4.644531 -5.757812 5.9375 -4.5 C 7.226562 -3.25 8.765625 -2.625 10.546875 -2.625 C 12.335938 -2.625 13.863281 -3.25 15.125 -4.5 C 16.394531 -5.757812 17.03125 -7.289062 17.03125 -9.09375 C 17.03125 -10.894531 16.394531 -12.414062 15.125 -13.65625 C 13.863281 -14.894531 12.34375 -15.515625 10.5625 -15.515625 Z M 10.5625 -15.515625 "/></g></g></g><g fill="#000000" fill-opacity="1"><g transform="translate(447.571423, 613.350685)"><g><path d="M 13.9375 0 L 10.609375 -5.515625 C 10.429688 -5.492188 10.15625 -5.484375 9.78125 -5.484375 L 5.453125 -5.484375 L 5.453125 0 L 2.390625 0 L 2.390625 -18.203125 L 9.78125 -18.203125 C 12.101562 -18.203125 13.90625 -17.660156 15.1875 -16.578125 C 16.46875 -15.492188 17.109375 -13.960938 17.109375 -11.984375 C 17.109375 -10.523438 16.78125 -9.289062 16.125 -8.28125 C 15.476562 -7.28125 14.550781 -6.546875 13.34375 -6.078125 L 17.421875 0 Z M 5.453125 -8.234375 L 9.78125 -8.234375 C 12.726562 -8.234375 14.203125 -9.457031 14.203125 -11.90625 C 14.203125 -14.257812 12.726562 -15.4375 9.78125 -15.4375 L 5.453125 -15.4375 Z M 5.453125 -8.234375 "/></g></g></g><g fill="#000000" fill-opacity="1"><g transform="translate(474.163737, 613.350685)"><g><path d="M 14.140625 -4.109375 L 4.96875 -4.109375 L 3.21875 0 L 0.03125 0 L 8.0625 -18.203125 L 11.203125 -18.203125 L 19.15625 0 L 15.890625 0 Z M 12.96875 -6.84375 L 9.546875 -14.921875 L 6.109375 -6.84375 Z M 12.96875 -6.84375 "/></g></g></g><g fill="#000000" fill-opacity="1"><g transform="translate(501.145928, 613.350685)"><g/></g></g><g fill="#000000" fill-opacity="1"><g transform="translate(515.651864, 613.350685)"><g><path d="M 9.859375 -6.0625 L 9.859375 0 L 6.8125 0 L 6.8125 -5.953125 L 0.03125 -18.203125 L 3.125 -18.203125 L 8.3125 -9.328125 L 13.421875 -18.203125 L 16.53125 -18.203125 Z M 9.859375 -6.0625 "/></g></g></g><g fill="#000000" fill-opacity="1"><g transform="translate(540.008872, 613.350685)"><g/></g></g><g fill="#000000" fill-opacity="1"><g transform="translate(554.514808, 613.350685)"><g><path d="M 14.015625 -22.71875 L 10.84375 -20.171875 L 8.1875 -20.171875 L 10.953125 -24.03125 Z M 17.859375 -18.203125 L 17.859375 -7.546875 C 17.859375 -5.171875 17.15625 -3.296875 15.75 -1.921875 C 14.351562 -0.554688 12.421875 0.125 9.953125 0.125 C 7.492188 0.125 5.554688 -0.554688 4.140625 -1.921875 C 2.734375 -3.296875 2.03125 -5.171875 2.03125 -7.546875 L 2.03125 -18.203125 L 5.09375 -18.203125 L 5.09375 -7.546875 C 5.09375 -6.015625 5.53125 -4.8125 6.40625 -3.9375 C 7.28125 -3.0625 8.472656 -2.625 9.984375 -2.625 C 11.472656 -2.625 12.644531 -3.054688 13.5 -3.921875 C 14.363281 -4.785156 14.796875 -5.992188 14.796875 -7.546875 L 14.796875 -18.203125 Z M 17.859375 -18.203125 "/></g></g></g><g fill="#000000" fill-opacity="1"><g transform="translate(582.172841, 613.350685)"><g><path d="M 18.171875 0 L 15.15625 0 L 5.453125 -13.046875 L 5.453125 0 L 2.390625 0 L 2.390625 -18.203125 L 5.40625 -18.203125 L 15.15625 -5.125 L 15.15625 -18.203125 L 18.171875 -18.203125 Z M 18.171875 0 "/></g></g></g><g fill="#000000" fill-opacity="1"><g transform="translate(610.558627, 613.350685)"><g><path d="M 15.390625 -15.4375 L 5.453125 -15.4375 L 5.453125 -10.53125 L 14.359375 -10.53125 L 14.359375 -7.78125 L 5.453125 -7.78125 L 5.453125 -2.75 L 15.703125 -2.75 L 15.703125 0 L 2.390625 0 L 2.390625 -18.203125 L 15.390625 -18.203125 Z M 15.390625 -15.4375 "/></g></g></g><g fill="#000000" fill-opacity="1"><g transform="translate(635.409471, 613.350685)"><g><path d="M 14.8125 -15.4375 L 9.046875 -15.4375 L 9.046875 0 L 5.984375 0 L 5.984375 -15.4375 L 0.234375 -15.4375 L 0.234375 -18.203125 L 14.8125 -18.203125 Z M 14.8125 -15.4375 "/></g></g></g><g fill="#000000" fill-opacity="1"><g transform="translate(658.258927, 613.350685)"><g><path d="M 15.390625 -15.4375 L 5.453125 -15.4375 L 5.453125 -10.53125 L 14.359375 -10.53125 L 14.359375 -7.78125 L 5.453125 -7.78125 L 5.453125 -2.75 L 15.703125 -2.75 L 15.703125 0 L 2.390625 0 L 2.390625 -18.203125 L 15.390625 -18.203125 Z M 15.390625 -15.4375 "/></g></g></g><g fill="#000000" fill-opacity="1"><g transform="translate(683.10977, 613.350685)"><g/></g></g><g fill="#000000" fill-opacity="1"><g transform="translate(697.615706, 613.350685)"><g><path d="M 14.140625 -4.109375 L 4.96875 -4.109375 L 3.21875 0 L 0.03125 0 L 8.0625 -18.203125 L 11.203125 -18.203125 L 19.15625 0 L 15.890625 0 Z M 12.96875 -6.84375 L 9.546875 -14.921875 L 6.109375 -6.84375 Z M 12.96875 -6.84375 "/></g></g></g><g fill="#000000" fill-opacity="1"><g transform="translate(261.864816, 650.100683)"><g><path d="M 5.453125 -2.78125 L 13.34375 -2.78125 L 13.34375 0 L 2.390625 0 L 2.390625 -18.203125 L 5.453125 -18.203125 Z M 5.453125 -2.78125 "/></g></g></g><g fill="#000000" fill-opacity="1"><g transform="translate(283.544618, 650.100683)"><g><path d="M 14.140625 -4.109375 L 4.96875 -4.109375 L 3.21875 0 L 0.03125 0 L 8.0625 -18.203125 L 11.203125 -18.203125 L 19.15625 0 L 15.890625 0 Z M 12.96875 -6.84375 L 9.546875 -14.921875 L 6.109375 -6.84375 Z M 12.96875 -6.84375 "/></g></g></g><g fill="#000000" fill-opacity="1"><g transform="translate(310.526833, 650.100683)"><g/></g></g><g fill="#000000" fill-opacity="1"><g transform="translate(325.032779, 650.100683)"><g><path d="M 2.390625 -18.203125 L 9.859375 -18.203125 C 12.578125 -18.203125 14.820312 -17.34375 16.59375 -15.625 C 18.375 -13.90625 19.265625 -11.726562 19.265625 -9.09375 C 19.265625 -6.457031 18.367188 -4.28125 16.578125 -2.5625 C 14.796875 -0.851562 12.53125 0 9.78125 0 L 2.390625 0 Z M 5.453125 -15.4375 L 5.453125 -2.75 L 9.9375 -2.75 C 11.71875 -2.75 13.203125 -3.34375 14.390625 -4.53125 C 15.578125 -5.71875 16.171875 -7.226562 16.171875 -9.0625 C 16.171875 -10.90625 15.554688 -12.425781 14.328125 -13.625 C 13.109375 -14.832031 11.597656 -15.4375 9.796875 -15.4375 Z M 5.453125 -15.4375 "/></g></g></g><g fill="#000000" fill-opacity="1"><g transform="translate(352.976709, 650.100683)"><g><path d="M 5.453125 0 L 2.390625 0 L 2.390625 -18.203125 L 5.453125 -18.203125 Z M 5.453125 0 "/></g></g></g><g fill="#000000" fill-opacity="1"><g transform="translate(368.626321, 650.100683)"><g><path d="M 10.5 0 L 7.328125 0 L 0.078125 -18.203125 L 3.375 -18.203125 L 9 -3.40625 L 14.65625 -18.203125 L 17.859375 -18.203125 Z M 10.5 0 "/></g></g></g><g fill="#000000" fill-opacity="1"><g transform="translate(394.360912, 650.100683)"><g><path d="M 15.390625 -15.4375 L 5.453125 -15.4375 L 5.453125 -10.53125 L 14.359375 -10.53125 L 14.359375 -7.78125 L 5.453125 -7.78125 L 5.453125 -2.75 L 15.703125 -2.75 L 15.703125 0 L 2.390625 0 L 2.390625 -18.203125 L 15.390625 -18.203125 Z M 15.390625 -15.4375 "/></g></g></g><g fill="#000000" fill-opacity="1"><g transform="translate(419.211768, 650.100683)"><g><path d="M 13.9375 0 L 10.609375 -5.515625 C 10.429688 -5.492188 10.15625 -5.484375 9.78125 -5.484375 L 5.453125 -5.484375 L 5.453125 0 L 2.390625 0 L 2.390625 -18.203125 L 9.78125 -18.203125 C 12.101562 -18.203125 13.90625 -17.660156 15.1875 -16.578125 C 16.46875 -15.492188 17.109375 -13.960938 17.109375 -11.984375 C 17.109375 -10.523438 16.78125 -9.289062 16.125 -8.28125 C 15.476562 -7.28125 14.550781 -6.546875 13.34375 -6.078125 L 17.421875 0 Z M 5.453125 -8.234375 L 9.78125 -8.234375 C 12.726562 -8.234375 14.203125 -9.457031 14.203125 -11.90625 C 14.203125 -14.257812 12.726562 -15.4375 9.78125 -15.4375 L 5.453125 -15.4375 Z M 5.453125 -8.234375 "/></g></g></g><g fill="#000000" fill-opacity="1"><g transform="translate(445.804093, 650.100683)"><g><path d="M 8.375 -18.328125 C 10.726562 -18.328125 12.847656 -17.703125 14.734375 -16.453125 L 13.46875 -13.75 C 11.613281 -14.875 9.835938 -15.4375 8.140625 -15.4375 C 7.222656 -15.4375 6.5 -15.269531 5.96875 -14.9375 C 5.4375 -14.613281 5.171875 -14.148438 5.171875 -13.546875 C 5.171875 -12.941406 5.410156 -12.425781 5.890625 -12 C 6.378906 -11.570312 6.988281 -11.257812 7.71875 -11.0625 C 8.445312 -10.863281 9.234375 -10.613281 10.078125 -10.3125 C 10.929688 -10.007812 11.722656 -9.6875 12.453125 -9.34375 C 13.179688 -9.007812 13.78125 -8.484375 14.25 -7.765625 C 14.726562 -7.046875 14.96875 -6.171875 14.96875 -5.140625 C 14.96875 -3.546875 14.332031 -2.269531 13.0625 -1.3125 C 11.789062 -0.363281 10.140625 0.109375 8.109375 0.109375 C 6.722656 0.109375 5.378906 -0.148438 4.078125 -0.671875 C 2.773438 -1.191406 1.640625 -1.894531 0.671875 -2.78125 L 2 -5.4375 C 2.914062 -4.582031 3.925781 -3.925781 5.03125 -3.46875 C 6.132812 -3.007812 7.175781 -2.78125 8.15625 -2.78125 C 9.238281 -2.78125 10.078125 -2.972656 10.671875 -3.359375 C 11.265625 -3.753906 11.5625 -4.296875 11.5625 -4.984375 C 11.5625 -5.609375 11.316406 -6.132812 10.828125 -6.5625 C 10.347656 -6.988281 9.742188 -7.300781 9.015625 -7.5 C 8.296875 -7.695312 7.507812 -7.9375 6.65625 -8.21875 C 5.800781 -8.507812 5.007812 -8.816406 4.28125 -9.140625 C 3.5625 -9.460938 2.957031 -9.976562 2.46875 -10.6875 C 1.976562 -11.394531 1.734375 -12.253906 1.734375 -13.265625 C 1.734375 -14.804688 2.335938 -16.035156 3.546875 -16.953125 C 4.765625 -17.867188 6.375 -18.328125 8.375 -18.328125 Z M 8.375 -18.328125 "/></g></g></g><g fill="#000000" fill-opacity="1"><g transform="translate(469.771225, 650.100683)"><g><path d="M 5.453125 0 L 2.390625 0 L 2.390625 -18.203125 L 5.453125 -18.203125 Z M 5.453125 0 "/></g></g></g><g fill="#000000" fill-opacity="1"><g transform="translate(485.420837, 650.100683)"><g><path d="M 14.484375 -22.71875 L 11.3125 -20.171875 L 8.65625 -20.171875 L 11.40625 -24.03125 Z M 3.671875 -15.640625 C 5.523438 -17.398438 7.8125 -18.28125 10.53125 -18.28125 C 13.25 -18.28125 15.535156 -17.398438 17.390625 -15.640625 C 19.242188 -13.878906 20.171875 -11.695312 20.171875 -9.09375 C 20.171875 -6.5 19.242188 -4.3125 17.390625 -2.53125 C 15.535156 -0.757812 13.25 0.125 10.53125 0.125 C 7.8125 0.125 5.523438 -0.757812 3.671875 -2.53125 C 1.816406 -4.3125 0.890625 -6.5 0.890625 -9.09375 C 0.890625 -11.695312 1.816406 -13.878906 3.671875 -15.640625 Z M 10.5625 -15.515625 C 8.757812 -15.515625 7.210938 -14.894531 5.921875 -13.65625 C 4.640625 -12.414062 4 -10.894531 4 -9.09375 C 4 -7.289062 4.644531 -5.757812 5.9375 -4.5 C 7.226562 -3.25 8.765625 -2.625 10.546875 -2.625 C 12.335938 -2.625 13.863281 -3.25 15.125 -4.5 C 16.394531 -5.757812 17.03125 -7.289062 17.03125 -9.09375 C 17.03125 -10.894531 16.394531 -12.414062 15.125 -13.65625 C 13.863281 -14.894531 12.34375 -15.515625 10.5625 -15.515625 Z M 10.5625 -15.515625 "/></g></g></g><g fill="#000000" fill-opacity="1"><g transform="translate(514.274504, 650.100683)"><g><path d="M 18.171875 0 L 15.15625 0 L 5.453125 -13.046875 L 5.453125 0 L 2.390625 0 L 2.390625 -18.203125 L 5.40625 -18.203125 L 15.15625 -5.125 L 15.15625 -18.203125 L 18.171875 -18.203125 Z M 18.171875 0 "/></g></g></g><g fill="#000000" fill-opacity="1"><g transform="translate(542.66029, 650.100683)"><g><path d="M 4.53125 -13.5 L 4.0625 -5.796875 L 2.15625 -5.796875 L 1.6875 -13.5 L 1.6875 -17.96875 L 4.53125 -17.96875 Z M 1.953125 -2.71875 C 2.265625 -3.039062 2.65625 -3.203125 3.125 -3.203125 C 3.59375 -3.203125 3.984375 -3.039062 4.296875 -2.71875 C 4.609375 -2.394531 4.765625 -1.992188 4.765625 -1.515625 C 4.765625 -1.003906 4.609375 -0.582031 4.296875 -0.25 C 3.984375 0.0703125 3.59375 0.234375 3.125 0.234375 C 2.65625 0.234375 2.265625 0.0703125 1.953125 -0.25 C 1.640625 -0.582031 1.484375 -1.003906 1.484375 -1.515625 C 1.484375 -1.992188 1.640625 -2.394531 1.953125 -2.71875 Z M 1.953125 -2.71875 "/></g></g></g></svg>